%TF.GenerationSoftware,KiCad,Pcbnew,9.0.9-9.0.9~ubuntu24.04.1*%
%TF.CreationDate,2026-06-12T21:01:09-04:00*%
%TF.ProjectId,yrm100_adapter,79726d31-3030-45f6-9164-61707465722e,rev?*%
%TF.SameCoordinates,Original*%
%TF.FileFunction,Drillmap*%
%TF.FilePolarity,Positive*%
%FSLAX45Y45*%
G04 Gerber Fmt 4.5, Leading zero omitted, Abs format (unit mm)*
G04 Created by KiCad (PCBNEW 9.0.9-9.0.9~ubuntu24.04.1) date 2026-06-12 21:01:09*
%MOMM*%
%LPD*%
G01*
G04 APERTURE LIST*
%ADD10C,0.050000*%
%ADD11C,0.100000*%
%ADD12C,0.200000*%
G04 APERTURE END LIST*
D10*
X12851998Y-7496133D02*
X12850000Y-12147614D01*
X12851998Y-7496133D02*
G75*
G02*
X13252500Y-7099998I408322J-12297D01*
G01*
X13246133Y-12548002D02*
G75*
G02*
X12849998Y-12147500I12297J408322D01*
G01*
X13246133Y-12548002D02*
X18852615Y-12554829D01*
D11*
X13579579Y-7599547D02*
G75*
G02*
X13806698Y-7391868I112501J104997D01*
G01*
X13579579Y-7599547D02*
X14542458Y-8574728D01*
X13800453Y-12259579D02*
G75*
G02*
X13592770Y-12032457I-105003J112499D01*
G01*
X13806699Y-7391866D02*
X14770000Y-8367500D01*
X14567953Y-11069579D02*
X13592772Y-12032458D01*
X14567953Y-11069579D02*
G75*
G02*
X14775632Y-11296698I104997J-112501D01*
G01*
X14769579Y-8367047D02*
G75*
G02*
X14542457Y-8574730I-112499J-105003D01*
G01*
X14775634Y-11296699D02*
X13800000Y-12260000D01*
X17227079Y-11274547D02*
G75*
G02*
X17454198Y-11066868I112501J104997D01*
G01*
X17227079Y-11274547D02*
X18189959Y-12249728D01*
X17450000Y-8555000D02*
G75*
G02*
X17242319Y-8327879I-105000J112500D01*
G01*
X17454200Y-11066866D02*
X18417500Y-12042500D01*
X18217500Y-7365000D02*
X17242319Y-8327879D01*
X18217500Y-7365000D02*
G75*
G02*
X18425181Y-7592120I105000J-112500D01*
G01*
X18417079Y-12042047D02*
G75*
G02*
X18189957Y-12249730I-112499J-105003D01*
G01*
X18425181Y-7592120D02*
X17449547Y-8555421D01*
D10*
X18853867Y-7104498D02*
X13252500Y-7100000D01*
X18853867Y-7104498D02*
G75*
G02*
X19250002Y-7505000I-12297J-408322D01*
G01*
X19253002Y-12150000D02*
G75*
G02*
X18852497Y-12554831I-408322J3430D01*
G01*
X19253002Y-12150000D02*
X19250000Y-7504889D01*
D12*
D11*
X13400000Y-9447500D02*
X13430000Y-9477500D01*
X13430000Y-9447500D02*
X13400000Y-9477500D01*
X14885000Y-10785000D02*
X14915000Y-10815000D01*
X14915000Y-10785000D02*
X14885000Y-10815000D01*
X14972500Y-9232500D02*
X15002500Y-9262500D01*
X15002500Y-9232500D02*
X14972500Y-9262500D01*
X17252500Y-9190000D02*
X17282500Y-9220000D01*
X17282500Y-9190000D02*
X17252500Y-9220000D01*
X17410000Y-10825000D02*
X17440000Y-10855000D01*
X17440000Y-10825000D02*
X17410000Y-10855000D01*
X13171000Y-9650000D02*
G75*
G02*
X13081000Y-9650000I-45000J0D01*
G01*
X13081000Y-9650000D02*
G75*
G02*
X13171000Y-9650000I45000J0D01*
G01*
X13425000Y-9650000D02*
G75*
G02*
X13335000Y-9650000I-45000J0D01*
G01*
X13335000Y-9650000D02*
G75*
G02*
X13425000Y-9650000I45000J0D01*
G01*
X13679000Y-9650000D02*
G75*
G02*
X13589000Y-9650000I-45000J0D01*
G01*
X13589000Y-9650000D02*
G75*
G02*
X13679000Y-9650000I45000J0D01*
G01*
X13933000Y-9650000D02*
G75*
G02*
X13843000Y-9650000I-45000J0D01*
G01*
X13843000Y-9650000D02*
G75*
G02*
X13933000Y-9650000I45000J0D01*
G01*
X14187000Y-9650000D02*
G75*
G02*
X14097000Y-9650000I-45000J0D01*
G01*
X14097000Y-9650000D02*
G75*
G02*
X14187000Y-9650000I45000J0D01*
G01*
X14441000Y-9650000D02*
G75*
G02*
X14351000Y-9650000I-45000J0D01*
G01*
X14351000Y-9650000D02*
G75*
G02*
X14441000Y-9650000I45000J0D01*
G01*
X14695000Y-9650000D02*
G75*
G02*
X14605000Y-9650000I-45000J0D01*
G01*
X14605000Y-9650000D02*
G75*
G02*
X14695000Y-9650000I45000J0D01*
G01*
X14949000Y-9650000D02*
G75*
G02*
X14859000Y-9650000I-45000J0D01*
G01*
X14859000Y-9650000D02*
G75*
G02*
X14949000Y-9650000I45000J0D01*
G01*
X16727000Y-9650000D02*
G75*
G02*
X16637000Y-9650000I-45000J0D01*
G01*
X16637000Y-9650000D02*
G75*
G02*
X16727000Y-9650000I45000J0D01*
G01*
X16981000Y-9650000D02*
G75*
G02*
X16891000Y-9650000I-45000J0D01*
G01*
X16891000Y-9650000D02*
G75*
G02*
X16981000Y-9650000I45000J0D01*
G01*
X17235000Y-9650000D02*
G75*
G02*
X17145000Y-9650000I-45000J0D01*
G01*
X17145000Y-9650000D02*
G75*
G02*
X17235000Y-9650000I45000J0D01*
G01*
X17489000Y-9650000D02*
G75*
G02*
X17399000Y-9650000I-45000J0D01*
G01*
X17399000Y-9650000D02*
G75*
G02*
X17489000Y-9650000I45000J0D01*
G01*
X17743000Y-9650000D02*
G75*
G02*
X17653000Y-9650000I-45000J0D01*
G01*
X17653000Y-9650000D02*
G75*
G02*
X17743000Y-9650000I45000J0D01*
G01*
X17997000Y-9650000D02*
G75*
G02*
X17907000Y-9650000I-45000J0D01*
G01*
X17907000Y-9650000D02*
G75*
G02*
X17997000Y-9650000I45000J0D01*
G01*
X18251000Y-9650000D02*
G75*
G02*
X18161000Y-9650000I-45000J0D01*
G01*
X18161000Y-9650000D02*
G75*
G02*
X18251000Y-9650000I45000J0D01*
G01*
X18505000Y-9650000D02*
G75*
G02*
X18415000Y-9650000I-45000J0D01*
G01*
X18415000Y-9650000D02*
G75*
G02*
X18505000Y-9650000I45000J0D01*
G01*
X18759000Y-9650000D02*
G75*
G02*
X18669000Y-9650000I-45000J0D01*
G01*
X18669000Y-9650000D02*
G75*
G02*
X18759000Y-9650000I45000J0D01*
G01*
X19013000Y-9650000D02*
G75*
G02*
X18923000Y-9650000I-45000J0D01*
G01*
X18923000Y-9650000D02*
G75*
G02*
X19013000Y-9650000I45000J0D01*
G01*
D12*
X13108277Y-12868813D02*
X13108277Y-12668813D01*
X13108277Y-12668813D02*
X13155896Y-12668813D01*
X13155896Y-12668813D02*
X13184467Y-12678337D01*
X13184467Y-12678337D02*
X13203515Y-12697384D01*
X13203515Y-12697384D02*
X13213039Y-12716432D01*
X13213039Y-12716432D02*
X13222562Y-12754527D01*
X13222562Y-12754527D02*
X13222562Y-12783099D01*
X13222562Y-12783099D02*
X13213039Y-12821194D01*
X13213039Y-12821194D02*
X13203515Y-12840241D01*
X13203515Y-12840241D02*
X13184467Y-12859289D01*
X13184467Y-12859289D02*
X13155896Y-12868813D01*
X13155896Y-12868813D02*
X13108277Y-12868813D01*
X13308277Y-12868813D02*
X13308277Y-12735480D01*
X13308277Y-12773575D02*
X13317801Y-12754527D01*
X13317801Y-12754527D02*
X13327324Y-12745003D01*
X13327324Y-12745003D02*
X13346372Y-12735480D01*
X13346372Y-12735480D02*
X13365420Y-12735480D01*
X13432086Y-12868813D02*
X13432086Y-12735480D01*
X13432086Y-12668813D02*
X13422562Y-12678337D01*
X13422562Y-12678337D02*
X13432086Y-12687861D01*
X13432086Y-12687861D02*
X13441610Y-12678337D01*
X13441610Y-12678337D02*
X13432086Y-12668813D01*
X13432086Y-12668813D02*
X13432086Y-12687861D01*
X13555896Y-12868813D02*
X13536848Y-12859289D01*
X13536848Y-12859289D02*
X13527324Y-12840241D01*
X13527324Y-12840241D02*
X13527324Y-12668813D01*
X13660658Y-12868813D02*
X13641610Y-12859289D01*
X13641610Y-12859289D02*
X13632086Y-12840241D01*
X13632086Y-12840241D02*
X13632086Y-12668813D01*
X13889229Y-12868813D02*
X13889229Y-12668813D01*
X13889229Y-12668813D02*
X13955896Y-12811670D01*
X13955896Y-12811670D02*
X14022562Y-12668813D01*
X14022562Y-12668813D02*
X14022562Y-12868813D01*
X14203515Y-12868813D02*
X14203515Y-12764051D01*
X14203515Y-12764051D02*
X14193991Y-12745003D01*
X14193991Y-12745003D02*
X14174943Y-12735480D01*
X14174943Y-12735480D02*
X14136848Y-12735480D01*
X14136848Y-12735480D02*
X14117801Y-12745003D01*
X14203515Y-12859289D02*
X14184467Y-12868813D01*
X14184467Y-12868813D02*
X14136848Y-12868813D01*
X14136848Y-12868813D02*
X14117801Y-12859289D01*
X14117801Y-12859289D02*
X14108277Y-12840241D01*
X14108277Y-12840241D02*
X14108277Y-12821194D01*
X14108277Y-12821194D02*
X14117801Y-12802146D01*
X14117801Y-12802146D02*
X14136848Y-12792622D01*
X14136848Y-12792622D02*
X14184467Y-12792622D01*
X14184467Y-12792622D02*
X14203515Y-12783099D01*
X14298753Y-12735480D02*
X14298753Y-12935480D01*
X14298753Y-12745003D02*
X14317801Y-12735480D01*
X14317801Y-12735480D02*
X14355896Y-12735480D01*
X14355896Y-12735480D02*
X14374943Y-12745003D01*
X14374943Y-12745003D02*
X14384467Y-12754527D01*
X14384467Y-12754527D02*
X14393991Y-12773575D01*
X14393991Y-12773575D02*
X14393991Y-12830718D01*
X14393991Y-12830718D02*
X14384467Y-12849765D01*
X14384467Y-12849765D02*
X14374943Y-12859289D01*
X14374943Y-12859289D02*
X14355896Y-12868813D01*
X14355896Y-12868813D02*
X14317801Y-12868813D01*
X14317801Y-12868813D02*
X14298753Y-12859289D01*
X14479705Y-12849765D02*
X14489229Y-12859289D01*
X14489229Y-12859289D02*
X14479705Y-12868813D01*
X14479705Y-12868813D02*
X14470182Y-12859289D01*
X14470182Y-12859289D02*
X14479705Y-12849765D01*
X14479705Y-12849765D02*
X14479705Y-12868813D01*
X14479705Y-12745003D02*
X14489229Y-12754527D01*
X14489229Y-12754527D02*
X14479705Y-12764051D01*
X14479705Y-12764051D02*
X14470182Y-12754527D01*
X14470182Y-12754527D02*
X14479705Y-12745003D01*
X14479705Y-12745003D02*
X14479705Y-12764051D01*
D11*
X12817500Y-13182329D02*
X12847500Y-13212329D01*
X12847500Y-13182329D02*
X12817500Y-13212329D01*
D12*
X13146372Y-13088813D02*
X13165420Y-13088813D01*
X13165420Y-13088813D02*
X13184467Y-13098337D01*
X13184467Y-13098337D02*
X13193991Y-13107861D01*
X13193991Y-13107861D02*
X13203515Y-13126908D01*
X13203515Y-13126908D02*
X13213039Y-13165003D01*
X13213039Y-13165003D02*
X13213039Y-13212622D01*
X13213039Y-13212622D02*
X13203515Y-13250718D01*
X13203515Y-13250718D02*
X13193991Y-13269765D01*
X13193991Y-13269765D02*
X13184467Y-13279289D01*
X13184467Y-13279289D02*
X13165420Y-13288813D01*
X13165420Y-13288813D02*
X13146372Y-13288813D01*
X13146372Y-13288813D02*
X13127324Y-13279289D01*
X13127324Y-13279289D02*
X13117801Y-13269765D01*
X13117801Y-13269765D02*
X13108277Y-13250718D01*
X13108277Y-13250718D02*
X13098753Y-13212622D01*
X13098753Y-13212622D02*
X13098753Y-13165003D01*
X13098753Y-13165003D02*
X13108277Y-13126908D01*
X13108277Y-13126908D02*
X13117801Y-13107861D01*
X13117801Y-13107861D02*
X13127324Y-13098337D01*
X13127324Y-13098337D02*
X13146372Y-13088813D01*
X13298753Y-13269765D02*
X13308277Y-13279289D01*
X13308277Y-13279289D02*
X13298753Y-13288813D01*
X13298753Y-13288813D02*
X13289229Y-13279289D01*
X13289229Y-13279289D02*
X13298753Y-13269765D01*
X13298753Y-13269765D02*
X13298753Y-13288813D01*
X13374943Y-13088813D02*
X13498753Y-13088813D01*
X13498753Y-13088813D02*
X13432086Y-13165003D01*
X13432086Y-13165003D02*
X13460658Y-13165003D01*
X13460658Y-13165003D02*
X13479705Y-13174527D01*
X13479705Y-13174527D02*
X13489229Y-13184051D01*
X13489229Y-13184051D02*
X13498753Y-13203099D01*
X13498753Y-13203099D02*
X13498753Y-13250718D01*
X13498753Y-13250718D02*
X13489229Y-13269765D01*
X13489229Y-13269765D02*
X13479705Y-13279289D01*
X13479705Y-13279289D02*
X13460658Y-13288813D01*
X13460658Y-13288813D02*
X13403515Y-13288813D01*
X13403515Y-13288813D02*
X13384467Y-13279289D01*
X13384467Y-13279289D02*
X13374943Y-13269765D01*
X13622562Y-13088813D02*
X13641610Y-13088813D01*
X13641610Y-13088813D02*
X13660658Y-13098337D01*
X13660658Y-13098337D02*
X13670182Y-13107861D01*
X13670182Y-13107861D02*
X13679705Y-13126908D01*
X13679705Y-13126908D02*
X13689229Y-13165003D01*
X13689229Y-13165003D02*
X13689229Y-13212622D01*
X13689229Y-13212622D02*
X13679705Y-13250718D01*
X13679705Y-13250718D02*
X13670182Y-13269765D01*
X13670182Y-13269765D02*
X13660658Y-13279289D01*
X13660658Y-13279289D02*
X13641610Y-13288813D01*
X13641610Y-13288813D02*
X13622562Y-13288813D01*
X13622562Y-13288813D02*
X13603515Y-13279289D01*
X13603515Y-13279289D02*
X13593991Y-13269765D01*
X13593991Y-13269765D02*
X13584467Y-13250718D01*
X13584467Y-13250718D02*
X13574943Y-13212622D01*
X13574943Y-13212622D02*
X13574943Y-13165003D01*
X13574943Y-13165003D02*
X13584467Y-13126908D01*
X13584467Y-13126908D02*
X13593991Y-13107861D01*
X13593991Y-13107861D02*
X13603515Y-13098337D01*
X13603515Y-13098337D02*
X13622562Y-13088813D01*
X13813039Y-13088813D02*
X13832086Y-13088813D01*
X13832086Y-13088813D02*
X13851134Y-13098337D01*
X13851134Y-13098337D02*
X13860658Y-13107861D01*
X13860658Y-13107861D02*
X13870182Y-13126908D01*
X13870182Y-13126908D02*
X13879705Y-13165003D01*
X13879705Y-13165003D02*
X13879705Y-13212622D01*
X13879705Y-13212622D02*
X13870182Y-13250718D01*
X13870182Y-13250718D02*
X13860658Y-13269765D01*
X13860658Y-13269765D02*
X13851134Y-13279289D01*
X13851134Y-13279289D02*
X13832086Y-13288813D01*
X13832086Y-13288813D02*
X13813039Y-13288813D01*
X13813039Y-13288813D02*
X13793991Y-13279289D01*
X13793991Y-13279289D02*
X13784467Y-13269765D01*
X13784467Y-13269765D02*
X13774943Y-13250718D01*
X13774943Y-13250718D02*
X13765420Y-13212622D01*
X13765420Y-13212622D02*
X13765420Y-13165003D01*
X13765420Y-13165003D02*
X13774943Y-13126908D01*
X13774943Y-13126908D02*
X13784467Y-13107861D01*
X13784467Y-13107861D02*
X13793991Y-13098337D01*
X13793991Y-13098337D02*
X13813039Y-13088813D01*
X13965420Y-13288813D02*
X13965420Y-13155480D01*
X13965420Y-13174527D02*
X13974943Y-13165003D01*
X13974943Y-13165003D02*
X13993991Y-13155480D01*
X13993991Y-13155480D02*
X14022563Y-13155480D01*
X14022563Y-13155480D02*
X14041610Y-13165003D01*
X14041610Y-13165003D02*
X14051134Y-13184051D01*
X14051134Y-13184051D02*
X14051134Y-13288813D01*
X14051134Y-13184051D02*
X14060658Y-13165003D01*
X14060658Y-13165003D02*
X14079705Y-13155480D01*
X14079705Y-13155480D02*
X14108277Y-13155480D01*
X14108277Y-13155480D02*
X14127324Y-13165003D01*
X14127324Y-13165003D02*
X14136848Y-13184051D01*
X14136848Y-13184051D02*
X14136848Y-13288813D01*
X14232086Y-13288813D02*
X14232086Y-13155480D01*
X14232086Y-13174527D02*
X14241610Y-13165003D01*
X14241610Y-13165003D02*
X14260658Y-13155480D01*
X14260658Y-13155480D02*
X14289229Y-13155480D01*
X14289229Y-13155480D02*
X14308277Y-13165003D01*
X14308277Y-13165003D02*
X14317801Y-13184051D01*
X14317801Y-13184051D02*
X14317801Y-13288813D01*
X14317801Y-13184051D02*
X14327324Y-13165003D01*
X14327324Y-13165003D02*
X14346372Y-13155480D01*
X14346372Y-13155480D02*
X14374943Y-13155480D01*
X14374943Y-13155480D02*
X14393991Y-13165003D01*
X14393991Y-13165003D02*
X14403515Y-13184051D01*
X14403515Y-13184051D02*
X14403515Y-13288813D01*
X14793991Y-13079289D02*
X14622563Y-13336432D01*
X15051134Y-13088813D02*
X15070182Y-13088813D01*
X15070182Y-13088813D02*
X15089229Y-13098337D01*
X15089229Y-13098337D02*
X15098753Y-13107861D01*
X15098753Y-13107861D02*
X15108277Y-13126908D01*
X15108277Y-13126908D02*
X15117801Y-13165003D01*
X15117801Y-13165003D02*
X15117801Y-13212622D01*
X15117801Y-13212622D02*
X15108277Y-13250718D01*
X15108277Y-13250718D02*
X15098753Y-13269765D01*
X15098753Y-13269765D02*
X15089229Y-13279289D01*
X15089229Y-13279289D02*
X15070182Y-13288813D01*
X15070182Y-13288813D02*
X15051134Y-13288813D01*
X15051134Y-13288813D02*
X15032086Y-13279289D01*
X15032086Y-13279289D02*
X15022563Y-13269765D01*
X15022563Y-13269765D02*
X15013039Y-13250718D01*
X15013039Y-13250718D02*
X15003515Y-13212622D01*
X15003515Y-13212622D02*
X15003515Y-13165003D01*
X15003515Y-13165003D02*
X15013039Y-13126908D01*
X15013039Y-13126908D02*
X15022563Y-13107861D01*
X15022563Y-13107861D02*
X15032086Y-13098337D01*
X15032086Y-13098337D02*
X15051134Y-13088813D01*
X15203515Y-13269765D02*
X15213039Y-13279289D01*
X15213039Y-13279289D02*
X15203515Y-13288813D01*
X15203515Y-13288813D02*
X15193991Y-13279289D01*
X15193991Y-13279289D02*
X15203515Y-13269765D01*
X15203515Y-13269765D02*
X15203515Y-13288813D01*
X15336848Y-13088813D02*
X15355896Y-13088813D01*
X15355896Y-13088813D02*
X15374944Y-13098337D01*
X15374944Y-13098337D02*
X15384467Y-13107861D01*
X15384467Y-13107861D02*
X15393991Y-13126908D01*
X15393991Y-13126908D02*
X15403515Y-13165003D01*
X15403515Y-13165003D02*
X15403515Y-13212622D01*
X15403515Y-13212622D02*
X15393991Y-13250718D01*
X15393991Y-13250718D02*
X15384467Y-13269765D01*
X15384467Y-13269765D02*
X15374944Y-13279289D01*
X15374944Y-13279289D02*
X15355896Y-13288813D01*
X15355896Y-13288813D02*
X15336848Y-13288813D01*
X15336848Y-13288813D02*
X15317801Y-13279289D01*
X15317801Y-13279289D02*
X15308277Y-13269765D01*
X15308277Y-13269765D02*
X15298753Y-13250718D01*
X15298753Y-13250718D02*
X15289229Y-13212622D01*
X15289229Y-13212622D02*
X15289229Y-13165003D01*
X15289229Y-13165003D02*
X15298753Y-13126908D01*
X15298753Y-13126908D02*
X15308277Y-13107861D01*
X15308277Y-13107861D02*
X15317801Y-13098337D01*
X15317801Y-13098337D02*
X15336848Y-13088813D01*
X15593991Y-13288813D02*
X15479706Y-13288813D01*
X15536848Y-13288813D02*
X15536848Y-13088813D01*
X15536848Y-13088813D02*
X15517801Y-13117384D01*
X15517801Y-13117384D02*
X15498753Y-13136432D01*
X15498753Y-13136432D02*
X15479706Y-13145956D01*
X15784467Y-13288813D02*
X15670182Y-13288813D01*
X15727325Y-13288813D02*
X15727325Y-13088813D01*
X15727325Y-13088813D02*
X15708277Y-13117384D01*
X15708277Y-13117384D02*
X15689229Y-13136432D01*
X15689229Y-13136432D02*
X15670182Y-13145956D01*
X15898753Y-13174527D02*
X15879706Y-13165003D01*
X15879706Y-13165003D02*
X15870182Y-13155480D01*
X15870182Y-13155480D02*
X15860658Y-13136432D01*
X15860658Y-13136432D02*
X15860658Y-13126908D01*
X15860658Y-13126908D02*
X15870182Y-13107861D01*
X15870182Y-13107861D02*
X15879706Y-13098337D01*
X15879706Y-13098337D02*
X15898753Y-13088813D01*
X15898753Y-13088813D02*
X15936848Y-13088813D01*
X15936848Y-13088813D02*
X15955896Y-13098337D01*
X15955896Y-13098337D02*
X15965420Y-13107861D01*
X15965420Y-13107861D02*
X15974944Y-13126908D01*
X15974944Y-13126908D02*
X15974944Y-13136432D01*
X15974944Y-13136432D02*
X15965420Y-13155480D01*
X15965420Y-13155480D02*
X15955896Y-13165003D01*
X15955896Y-13165003D02*
X15936848Y-13174527D01*
X15936848Y-13174527D02*
X15898753Y-13174527D01*
X15898753Y-13174527D02*
X15879706Y-13184051D01*
X15879706Y-13184051D02*
X15870182Y-13193575D01*
X15870182Y-13193575D02*
X15860658Y-13212622D01*
X15860658Y-13212622D02*
X15860658Y-13250718D01*
X15860658Y-13250718D02*
X15870182Y-13269765D01*
X15870182Y-13269765D02*
X15879706Y-13279289D01*
X15879706Y-13279289D02*
X15898753Y-13288813D01*
X15898753Y-13288813D02*
X15936848Y-13288813D01*
X15936848Y-13288813D02*
X15955896Y-13279289D01*
X15955896Y-13279289D02*
X15965420Y-13269765D01*
X15965420Y-13269765D02*
X15974944Y-13250718D01*
X15974944Y-13250718D02*
X15974944Y-13212622D01*
X15974944Y-13212622D02*
X15965420Y-13193575D01*
X15965420Y-13193575D02*
X15955896Y-13184051D01*
X15955896Y-13184051D02*
X15936848Y-13174527D01*
X16051134Y-13088813D02*
X16051134Y-13126908D01*
X16127325Y-13088813D02*
X16127325Y-13126908D01*
X16422563Y-13365003D02*
X16413039Y-13355480D01*
X16413039Y-13355480D02*
X16393991Y-13326908D01*
X16393991Y-13326908D02*
X16384468Y-13307861D01*
X16384468Y-13307861D02*
X16374944Y-13279289D01*
X16374944Y-13279289D02*
X16365420Y-13231670D01*
X16365420Y-13231670D02*
X16365420Y-13193575D01*
X16365420Y-13193575D02*
X16374944Y-13145956D01*
X16374944Y-13145956D02*
X16384468Y-13117384D01*
X16384468Y-13117384D02*
X16393991Y-13098337D01*
X16393991Y-13098337D02*
X16413039Y-13069765D01*
X16413039Y-13069765D02*
X16422563Y-13060241D01*
X16593991Y-13088813D02*
X16498753Y-13088813D01*
X16498753Y-13088813D02*
X16489229Y-13184051D01*
X16489229Y-13184051D02*
X16498753Y-13174527D01*
X16498753Y-13174527D02*
X16517801Y-13165003D01*
X16517801Y-13165003D02*
X16565420Y-13165003D01*
X16565420Y-13165003D02*
X16584468Y-13174527D01*
X16584468Y-13174527D02*
X16593991Y-13184051D01*
X16593991Y-13184051D02*
X16603515Y-13203099D01*
X16603515Y-13203099D02*
X16603515Y-13250718D01*
X16603515Y-13250718D02*
X16593991Y-13269765D01*
X16593991Y-13269765D02*
X16584468Y-13279289D01*
X16584468Y-13279289D02*
X16565420Y-13288813D01*
X16565420Y-13288813D02*
X16517801Y-13288813D01*
X16517801Y-13288813D02*
X16498753Y-13279289D01*
X16498753Y-13279289D02*
X16489229Y-13269765D01*
X16841611Y-13288813D02*
X16841611Y-13088813D01*
X16927325Y-13288813D02*
X16927325Y-13184051D01*
X16927325Y-13184051D02*
X16917801Y-13165003D01*
X16917801Y-13165003D02*
X16898753Y-13155480D01*
X16898753Y-13155480D02*
X16870182Y-13155480D01*
X16870182Y-13155480D02*
X16851134Y-13165003D01*
X16851134Y-13165003D02*
X16841611Y-13174527D01*
X17051134Y-13288813D02*
X17032087Y-13279289D01*
X17032087Y-13279289D02*
X17022563Y-13269765D01*
X17022563Y-13269765D02*
X17013039Y-13250718D01*
X17013039Y-13250718D02*
X17013039Y-13193575D01*
X17013039Y-13193575D02*
X17022563Y-13174527D01*
X17022563Y-13174527D02*
X17032087Y-13165003D01*
X17032087Y-13165003D02*
X17051134Y-13155480D01*
X17051134Y-13155480D02*
X17079706Y-13155480D01*
X17079706Y-13155480D02*
X17098753Y-13165003D01*
X17098753Y-13165003D02*
X17108277Y-13174527D01*
X17108277Y-13174527D02*
X17117801Y-13193575D01*
X17117801Y-13193575D02*
X17117801Y-13250718D01*
X17117801Y-13250718D02*
X17108277Y-13269765D01*
X17108277Y-13269765D02*
X17098753Y-13279289D01*
X17098753Y-13279289D02*
X17079706Y-13288813D01*
X17079706Y-13288813D02*
X17051134Y-13288813D01*
X17232087Y-13288813D02*
X17213039Y-13279289D01*
X17213039Y-13279289D02*
X17203515Y-13260241D01*
X17203515Y-13260241D02*
X17203515Y-13088813D01*
X17384468Y-13279289D02*
X17365420Y-13288813D01*
X17365420Y-13288813D02*
X17327325Y-13288813D01*
X17327325Y-13288813D02*
X17308277Y-13279289D01*
X17308277Y-13279289D02*
X17298753Y-13260241D01*
X17298753Y-13260241D02*
X17298753Y-13184051D01*
X17298753Y-13184051D02*
X17308277Y-13165003D01*
X17308277Y-13165003D02*
X17327325Y-13155480D01*
X17327325Y-13155480D02*
X17365420Y-13155480D01*
X17365420Y-13155480D02*
X17384468Y-13165003D01*
X17384468Y-13165003D02*
X17393992Y-13184051D01*
X17393992Y-13184051D02*
X17393992Y-13203099D01*
X17393992Y-13203099D02*
X17298753Y-13222146D01*
X17470182Y-13279289D02*
X17489230Y-13288813D01*
X17489230Y-13288813D02*
X17527325Y-13288813D01*
X17527325Y-13288813D02*
X17546373Y-13279289D01*
X17546373Y-13279289D02*
X17555896Y-13260241D01*
X17555896Y-13260241D02*
X17555896Y-13250718D01*
X17555896Y-13250718D02*
X17546373Y-13231670D01*
X17546373Y-13231670D02*
X17527325Y-13222146D01*
X17527325Y-13222146D02*
X17498753Y-13222146D01*
X17498753Y-13222146D02*
X17479706Y-13212622D01*
X17479706Y-13212622D02*
X17470182Y-13193575D01*
X17470182Y-13193575D02*
X17470182Y-13184051D01*
X17470182Y-13184051D02*
X17479706Y-13165003D01*
X17479706Y-13165003D02*
X17498753Y-13155480D01*
X17498753Y-13155480D02*
X17527325Y-13155480D01*
X17527325Y-13155480D02*
X17546373Y-13165003D01*
X17622563Y-13365003D02*
X17632087Y-13355480D01*
X17632087Y-13355480D02*
X17651134Y-13326908D01*
X17651134Y-13326908D02*
X17660658Y-13307861D01*
X17660658Y-13307861D02*
X17670182Y-13279289D01*
X17670182Y-13279289D02*
X17679706Y-13231670D01*
X17679706Y-13231670D02*
X17679706Y-13193575D01*
X17679706Y-13193575D02*
X17670182Y-13145956D01*
X17670182Y-13145956D02*
X17660658Y-13117384D01*
X17660658Y-13117384D02*
X17651134Y-13098337D01*
X17651134Y-13098337D02*
X17632087Y-13069765D01*
X17632087Y-13069765D02*
X17622563Y-13060241D01*
D11*
X12847500Y-13461329D02*
G75*
G02*
X12757500Y-13461329I-45000J0D01*
G01*
X12757500Y-13461329D02*
G75*
G02*
X12847500Y-13461329I45000J0D01*
G01*
D12*
X13146372Y-13352813D02*
X13165420Y-13352813D01*
X13165420Y-13352813D02*
X13184467Y-13362337D01*
X13184467Y-13362337D02*
X13193991Y-13371861D01*
X13193991Y-13371861D02*
X13203515Y-13390908D01*
X13203515Y-13390908D02*
X13213039Y-13429003D01*
X13213039Y-13429003D02*
X13213039Y-13476622D01*
X13213039Y-13476622D02*
X13203515Y-13514718D01*
X13203515Y-13514718D02*
X13193991Y-13533765D01*
X13193991Y-13533765D02*
X13184467Y-13543289D01*
X13184467Y-13543289D02*
X13165420Y-13552813D01*
X13165420Y-13552813D02*
X13146372Y-13552813D01*
X13146372Y-13552813D02*
X13127324Y-13543289D01*
X13127324Y-13543289D02*
X13117801Y-13533765D01*
X13117801Y-13533765D02*
X13108277Y-13514718D01*
X13108277Y-13514718D02*
X13098753Y-13476622D01*
X13098753Y-13476622D02*
X13098753Y-13429003D01*
X13098753Y-13429003D02*
X13108277Y-13390908D01*
X13108277Y-13390908D02*
X13117801Y-13371861D01*
X13117801Y-13371861D02*
X13127324Y-13362337D01*
X13127324Y-13362337D02*
X13146372Y-13352813D01*
X13298753Y-13533765D02*
X13308277Y-13543289D01*
X13308277Y-13543289D02*
X13298753Y-13552813D01*
X13298753Y-13552813D02*
X13289229Y-13543289D01*
X13289229Y-13543289D02*
X13298753Y-13533765D01*
X13298753Y-13533765D02*
X13298753Y-13552813D01*
X13403515Y-13552813D02*
X13441610Y-13552813D01*
X13441610Y-13552813D02*
X13460658Y-13543289D01*
X13460658Y-13543289D02*
X13470182Y-13533765D01*
X13470182Y-13533765D02*
X13489229Y-13505194D01*
X13489229Y-13505194D02*
X13498753Y-13467099D01*
X13498753Y-13467099D02*
X13498753Y-13390908D01*
X13498753Y-13390908D02*
X13489229Y-13371861D01*
X13489229Y-13371861D02*
X13479705Y-13362337D01*
X13479705Y-13362337D02*
X13460658Y-13352813D01*
X13460658Y-13352813D02*
X13422562Y-13352813D01*
X13422562Y-13352813D02*
X13403515Y-13362337D01*
X13403515Y-13362337D02*
X13393991Y-13371861D01*
X13393991Y-13371861D02*
X13384467Y-13390908D01*
X13384467Y-13390908D02*
X13384467Y-13438527D01*
X13384467Y-13438527D02*
X13393991Y-13457575D01*
X13393991Y-13457575D02*
X13403515Y-13467099D01*
X13403515Y-13467099D02*
X13422562Y-13476622D01*
X13422562Y-13476622D02*
X13460658Y-13476622D01*
X13460658Y-13476622D02*
X13479705Y-13467099D01*
X13479705Y-13467099D02*
X13489229Y-13457575D01*
X13489229Y-13457575D02*
X13498753Y-13438527D01*
X13622562Y-13352813D02*
X13641610Y-13352813D01*
X13641610Y-13352813D02*
X13660658Y-13362337D01*
X13660658Y-13362337D02*
X13670182Y-13371861D01*
X13670182Y-13371861D02*
X13679705Y-13390908D01*
X13679705Y-13390908D02*
X13689229Y-13429003D01*
X13689229Y-13429003D02*
X13689229Y-13476622D01*
X13689229Y-13476622D02*
X13679705Y-13514718D01*
X13679705Y-13514718D02*
X13670182Y-13533765D01*
X13670182Y-13533765D02*
X13660658Y-13543289D01*
X13660658Y-13543289D02*
X13641610Y-13552813D01*
X13641610Y-13552813D02*
X13622562Y-13552813D01*
X13622562Y-13552813D02*
X13603515Y-13543289D01*
X13603515Y-13543289D02*
X13593991Y-13533765D01*
X13593991Y-13533765D02*
X13584467Y-13514718D01*
X13584467Y-13514718D02*
X13574943Y-13476622D01*
X13574943Y-13476622D02*
X13574943Y-13429003D01*
X13574943Y-13429003D02*
X13584467Y-13390908D01*
X13584467Y-13390908D02*
X13593991Y-13371861D01*
X13593991Y-13371861D02*
X13603515Y-13362337D01*
X13603515Y-13362337D02*
X13622562Y-13352813D01*
X13813039Y-13352813D02*
X13832086Y-13352813D01*
X13832086Y-13352813D02*
X13851134Y-13362337D01*
X13851134Y-13362337D02*
X13860658Y-13371861D01*
X13860658Y-13371861D02*
X13870182Y-13390908D01*
X13870182Y-13390908D02*
X13879705Y-13429003D01*
X13879705Y-13429003D02*
X13879705Y-13476622D01*
X13879705Y-13476622D02*
X13870182Y-13514718D01*
X13870182Y-13514718D02*
X13860658Y-13533765D01*
X13860658Y-13533765D02*
X13851134Y-13543289D01*
X13851134Y-13543289D02*
X13832086Y-13552813D01*
X13832086Y-13552813D02*
X13813039Y-13552813D01*
X13813039Y-13552813D02*
X13793991Y-13543289D01*
X13793991Y-13543289D02*
X13784467Y-13533765D01*
X13784467Y-13533765D02*
X13774943Y-13514718D01*
X13774943Y-13514718D02*
X13765420Y-13476622D01*
X13765420Y-13476622D02*
X13765420Y-13429003D01*
X13765420Y-13429003D02*
X13774943Y-13390908D01*
X13774943Y-13390908D02*
X13784467Y-13371861D01*
X13784467Y-13371861D02*
X13793991Y-13362337D01*
X13793991Y-13362337D02*
X13813039Y-13352813D01*
X13965420Y-13552813D02*
X13965420Y-13419480D01*
X13965420Y-13438527D02*
X13974943Y-13429003D01*
X13974943Y-13429003D02*
X13993991Y-13419480D01*
X13993991Y-13419480D02*
X14022563Y-13419480D01*
X14022563Y-13419480D02*
X14041610Y-13429003D01*
X14041610Y-13429003D02*
X14051134Y-13448051D01*
X14051134Y-13448051D02*
X14051134Y-13552813D01*
X14051134Y-13448051D02*
X14060658Y-13429003D01*
X14060658Y-13429003D02*
X14079705Y-13419480D01*
X14079705Y-13419480D02*
X14108277Y-13419480D01*
X14108277Y-13419480D02*
X14127324Y-13429003D01*
X14127324Y-13429003D02*
X14136848Y-13448051D01*
X14136848Y-13448051D02*
X14136848Y-13552813D01*
X14232086Y-13552813D02*
X14232086Y-13419480D01*
X14232086Y-13438527D02*
X14241610Y-13429003D01*
X14241610Y-13429003D02*
X14260658Y-13419480D01*
X14260658Y-13419480D02*
X14289229Y-13419480D01*
X14289229Y-13419480D02*
X14308277Y-13429003D01*
X14308277Y-13429003D02*
X14317801Y-13448051D01*
X14317801Y-13448051D02*
X14317801Y-13552813D01*
X14317801Y-13448051D02*
X14327324Y-13429003D01*
X14327324Y-13429003D02*
X14346372Y-13419480D01*
X14346372Y-13419480D02*
X14374943Y-13419480D01*
X14374943Y-13419480D02*
X14393991Y-13429003D01*
X14393991Y-13429003D02*
X14403515Y-13448051D01*
X14403515Y-13448051D02*
X14403515Y-13552813D01*
X14793991Y-13343289D02*
X14622563Y-13600432D01*
X15051134Y-13352813D02*
X15070182Y-13352813D01*
X15070182Y-13352813D02*
X15089229Y-13362337D01*
X15089229Y-13362337D02*
X15098753Y-13371861D01*
X15098753Y-13371861D02*
X15108277Y-13390908D01*
X15108277Y-13390908D02*
X15117801Y-13429003D01*
X15117801Y-13429003D02*
X15117801Y-13476622D01*
X15117801Y-13476622D02*
X15108277Y-13514718D01*
X15108277Y-13514718D02*
X15098753Y-13533765D01*
X15098753Y-13533765D02*
X15089229Y-13543289D01*
X15089229Y-13543289D02*
X15070182Y-13552813D01*
X15070182Y-13552813D02*
X15051134Y-13552813D01*
X15051134Y-13552813D02*
X15032086Y-13543289D01*
X15032086Y-13543289D02*
X15022563Y-13533765D01*
X15022563Y-13533765D02*
X15013039Y-13514718D01*
X15013039Y-13514718D02*
X15003515Y-13476622D01*
X15003515Y-13476622D02*
X15003515Y-13429003D01*
X15003515Y-13429003D02*
X15013039Y-13390908D01*
X15013039Y-13390908D02*
X15022563Y-13371861D01*
X15022563Y-13371861D02*
X15032086Y-13362337D01*
X15032086Y-13362337D02*
X15051134Y-13352813D01*
X15203515Y-13533765D02*
X15213039Y-13543289D01*
X15213039Y-13543289D02*
X15203515Y-13552813D01*
X15203515Y-13552813D02*
X15193991Y-13543289D01*
X15193991Y-13543289D02*
X15203515Y-13533765D01*
X15203515Y-13533765D02*
X15203515Y-13552813D01*
X15336848Y-13352813D02*
X15355896Y-13352813D01*
X15355896Y-13352813D02*
X15374944Y-13362337D01*
X15374944Y-13362337D02*
X15384467Y-13371861D01*
X15384467Y-13371861D02*
X15393991Y-13390908D01*
X15393991Y-13390908D02*
X15403515Y-13429003D01*
X15403515Y-13429003D02*
X15403515Y-13476622D01*
X15403515Y-13476622D02*
X15393991Y-13514718D01*
X15393991Y-13514718D02*
X15384467Y-13533765D01*
X15384467Y-13533765D02*
X15374944Y-13543289D01*
X15374944Y-13543289D02*
X15355896Y-13552813D01*
X15355896Y-13552813D02*
X15336848Y-13552813D01*
X15336848Y-13552813D02*
X15317801Y-13543289D01*
X15317801Y-13543289D02*
X15308277Y-13533765D01*
X15308277Y-13533765D02*
X15298753Y-13514718D01*
X15298753Y-13514718D02*
X15289229Y-13476622D01*
X15289229Y-13476622D02*
X15289229Y-13429003D01*
X15289229Y-13429003D02*
X15298753Y-13390908D01*
X15298753Y-13390908D02*
X15308277Y-13371861D01*
X15308277Y-13371861D02*
X15317801Y-13362337D01*
X15317801Y-13362337D02*
X15336848Y-13352813D01*
X15470182Y-13352813D02*
X15593991Y-13352813D01*
X15593991Y-13352813D02*
X15527325Y-13429003D01*
X15527325Y-13429003D02*
X15555896Y-13429003D01*
X15555896Y-13429003D02*
X15574944Y-13438527D01*
X15574944Y-13438527D02*
X15584467Y-13448051D01*
X15584467Y-13448051D02*
X15593991Y-13467099D01*
X15593991Y-13467099D02*
X15593991Y-13514718D01*
X15593991Y-13514718D02*
X15584467Y-13533765D01*
X15584467Y-13533765D02*
X15574944Y-13543289D01*
X15574944Y-13543289D02*
X15555896Y-13552813D01*
X15555896Y-13552813D02*
X15498753Y-13552813D01*
X15498753Y-13552813D02*
X15479706Y-13543289D01*
X15479706Y-13543289D02*
X15470182Y-13533765D01*
X15774944Y-13352813D02*
X15679706Y-13352813D01*
X15679706Y-13352813D02*
X15670182Y-13448051D01*
X15670182Y-13448051D02*
X15679706Y-13438527D01*
X15679706Y-13438527D02*
X15698753Y-13429003D01*
X15698753Y-13429003D02*
X15746372Y-13429003D01*
X15746372Y-13429003D02*
X15765420Y-13438527D01*
X15765420Y-13438527D02*
X15774944Y-13448051D01*
X15774944Y-13448051D02*
X15784467Y-13467099D01*
X15784467Y-13467099D02*
X15784467Y-13514718D01*
X15784467Y-13514718D02*
X15774944Y-13533765D01*
X15774944Y-13533765D02*
X15765420Y-13543289D01*
X15765420Y-13543289D02*
X15746372Y-13552813D01*
X15746372Y-13552813D02*
X15698753Y-13552813D01*
X15698753Y-13552813D02*
X15679706Y-13543289D01*
X15679706Y-13543289D02*
X15670182Y-13533765D01*
X15955896Y-13419480D02*
X15955896Y-13552813D01*
X15908277Y-13343289D02*
X15860658Y-13486146D01*
X15860658Y-13486146D02*
X15984467Y-13486146D01*
X16051134Y-13352813D02*
X16051134Y-13390908D01*
X16127325Y-13352813D02*
X16127325Y-13390908D01*
X16422563Y-13629003D02*
X16413039Y-13619480D01*
X16413039Y-13619480D02*
X16393991Y-13590908D01*
X16393991Y-13590908D02*
X16384468Y-13571861D01*
X16384468Y-13571861D02*
X16374944Y-13543289D01*
X16374944Y-13543289D02*
X16365420Y-13495670D01*
X16365420Y-13495670D02*
X16365420Y-13457575D01*
X16365420Y-13457575D02*
X16374944Y-13409956D01*
X16374944Y-13409956D02*
X16384468Y-13381384D01*
X16384468Y-13381384D02*
X16393991Y-13362337D01*
X16393991Y-13362337D02*
X16413039Y-13333765D01*
X16413039Y-13333765D02*
X16422563Y-13324241D01*
X16603515Y-13552813D02*
X16489229Y-13552813D01*
X16546372Y-13552813D02*
X16546372Y-13352813D01*
X16546372Y-13352813D02*
X16527325Y-13381384D01*
X16527325Y-13381384D02*
X16508277Y-13400432D01*
X16508277Y-13400432D02*
X16489229Y-13409956D01*
X16717801Y-13438527D02*
X16698753Y-13429003D01*
X16698753Y-13429003D02*
X16689229Y-13419480D01*
X16689229Y-13419480D02*
X16679706Y-13400432D01*
X16679706Y-13400432D02*
X16679706Y-13390908D01*
X16679706Y-13390908D02*
X16689229Y-13371861D01*
X16689229Y-13371861D02*
X16698753Y-13362337D01*
X16698753Y-13362337D02*
X16717801Y-13352813D01*
X16717801Y-13352813D02*
X16755896Y-13352813D01*
X16755896Y-13352813D02*
X16774944Y-13362337D01*
X16774944Y-13362337D02*
X16784468Y-13371861D01*
X16784468Y-13371861D02*
X16793991Y-13390908D01*
X16793991Y-13390908D02*
X16793991Y-13400432D01*
X16793991Y-13400432D02*
X16784468Y-13419480D01*
X16784468Y-13419480D02*
X16774944Y-13429003D01*
X16774944Y-13429003D02*
X16755896Y-13438527D01*
X16755896Y-13438527D02*
X16717801Y-13438527D01*
X16717801Y-13438527D02*
X16698753Y-13448051D01*
X16698753Y-13448051D02*
X16689229Y-13457575D01*
X16689229Y-13457575D02*
X16679706Y-13476622D01*
X16679706Y-13476622D02*
X16679706Y-13514718D01*
X16679706Y-13514718D02*
X16689229Y-13533765D01*
X16689229Y-13533765D02*
X16698753Y-13543289D01*
X16698753Y-13543289D02*
X16717801Y-13552813D01*
X16717801Y-13552813D02*
X16755896Y-13552813D01*
X16755896Y-13552813D02*
X16774944Y-13543289D01*
X16774944Y-13543289D02*
X16784468Y-13533765D01*
X16784468Y-13533765D02*
X16793991Y-13514718D01*
X16793991Y-13514718D02*
X16793991Y-13476622D01*
X16793991Y-13476622D02*
X16784468Y-13457575D01*
X16784468Y-13457575D02*
X16774944Y-13448051D01*
X16774944Y-13448051D02*
X16755896Y-13438527D01*
X17032087Y-13552813D02*
X17032087Y-13352813D01*
X17117801Y-13552813D02*
X17117801Y-13448051D01*
X17117801Y-13448051D02*
X17108277Y-13429003D01*
X17108277Y-13429003D02*
X17089230Y-13419480D01*
X17089230Y-13419480D02*
X17060658Y-13419480D01*
X17060658Y-13419480D02*
X17041611Y-13429003D01*
X17041611Y-13429003D02*
X17032087Y-13438527D01*
X17241611Y-13552813D02*
X17222563Y-13543289D01*
X17222563Y-13543289D02*
X17213039Y-13533765D01*
X17213039Y-13533765D02*
X17203515Y-13514718D01*
X17203515Y-13514718D02*
X17203515Y-13457575D01*
X17203515Y-13457575D02*
X17213039Y-13438527D01*
X17213039Y-13438527D02*
X17222563Y-13429003D01*
X17222563Y-13429003D02*
X17241611Y-13419480D01*
X17241611Y-13419480D02*
X17270182Y-13419480D01*
X17270182Y-13419480D02*
X17289230Y-13429003D01*
X17289230Y-13429003D02*
X17298753Y-13438527D01*
X17298753Y-13438527D02*
X17308277Y-13457575D01*
X17308277Y-13457575D02*
X17308277Y-13514718D01*
X17308277Y-13514718D02*
X17298753Y-13533765D01*
X17298753Y-13533765D02*
X17289230Y-13543289D01*
X17289230Y-13543289D02*
X17270182Y-13552813D01*
X17270182Y-13552813D02*
X17241611Y-13552813D01*
X17422563Y-13552813D02*
X17403515Y-13543289D01*
X17403515Y-13543289D02*
X17393992Y-13524241D01*
X17393992Y-13524241D02*
X17393992Y-13352813D01*
X17574944Y-13543289D02*
X17555896Y-13552813D01*
X17555896Y-13552813D02*
X17517801Y-13552813D01*
X17517801Y-13552813D02*
X17498753Y-13543289D01*
X17498753Y-13543289D02*
X17489230Y-13524241D01*
X17489230Y-13524241D02*
X17489230Y-13448051D01*
X17489230Y-13448051D02*
X17498753Y-13429003D01*
X17498753Y-13429003D02*
X17517801Y-13419480D01*
X17517801Y-13419480D02*
X17555896Y-13419480D01*
X17555896Y-13419480D02*
X17574944Y-13429003D01*
X17574944Y-13429003D02*
X17584468Y-13448051D01*
X17584468Y-13448051D02*
X17584468Y-13467099D01*
X17584468Y-13467099D02*
X17489230Y-13486146D01*
X17660658Y-13543289D02*
X17679706Y-13552813D01*
X17679706Y-13552813D02*
X17717801Y-13552813D01*
X17717801Y-13552813D02*
X17736849Y-13543289D01*
X17736849Y-13543289D02*
X17746373Y-13524241D01*
X17746373Y-13524241D02*
X17746373Y-13514718D01*
X17746373Y-13514718D02*
X17736849Y-13495670D01*
X17736849Y-13495670D02*
X17717801Y-13486146D01*
X17717801Y-13486146D02*
X17689230Y-13486146D01*
X17689230Y-13486146D02*
X17670182Y-13476622D01*
X17670182Y-13476622D02*
X17660658Y-13457575D01*
X17660658Y-13457575D02*
X17660658Y-13448051D01*
X17660658Y-13448051D02*
X17670182Y-13429003D01*
X17670182Y-13429003D02*
X17689230Y-13419480D01*
X17689230Y-13419480D02*
X17717801Y-13419480D01*
X17717801Y-13419480D02*
X17736849Y-13429003D01*
X17813039Y-13629003D02*
X17822563Y-13619480D01*
X17822563Y-13619480D02*
X17841611Y-13590908D01*
X17841611Y-13590908D02*
X17851134Y-13571861D01*
X17851134Y-13571861D02*
X17860658Y-13543289D01*
X17860658Y-13543289D02*
X17870182Y-13495670D01*
X17870182Y-13495670D02*
X17870182Y-13457575D01*
X17870182Y-13457575D02*
X17860658Y-13409956D01*
X17860658Y-13409956D02*
X17851134Y-13381384D01*
X17851134Y-13381384D02*
X17841611Y-13362337D01*
X17841611Y-13362337D02*
X17822563Y-13333765D01*
X17822563Y-13333765D02*
X17813039Y-13324241D01*
M02*
