G04 #@! TF.GenerationSoftware,KiCad,Pcbnew,9.0.9-9.0.9~ubuntu24.04.1*
G04 #@! TF.CreationDate,2026-06-12T21:01:09-04:00*
G04 #@! TF.ProjectId,yrm100_adapter,79726d31-3030-45f6-9164-61707465722e,rev?*
G04 #@! TF.SameCoordinates,Original*
G04 #@! TF.FileFunction,Copper,L2,Bot*
G04 #@! TF.FilePolarity,Positive*
%FSLAX46Y46*%
G04 Gerber Fmt 4.6, Leading zero omitted, Abs format (unit mm)*
G04 Created by KiCad (PCBNEW 9.0.9-9.0.9~ubuntu24.04.1) date 2026-06-12 21:01:09*
%MOMM*%
%LPD*%
G01*
G04 APERTURE LIST*
G04 #@! TA.AperFunction,ComponentPad*
%ADD10R,1.700000X1.700000*%
G04 #@! TD*
G04 #@! TA.AperFunction,ComponentPad*
%ADD11O,1.700000X1.700000*%
G04 #@! TD*
G04 #@! TA.AperFunction,ViaPad*
%ADD12C,0.600000*%
G04 #@! TD*
G04 APERTURE END LIST*
D10*
G04 #@! TO.P,A1,1,5V*
G04 #@! TO.N,/5V*
X131260000Y-96500000D03*
D11*
G04 #@! TO.P,A1,2,SPI1.MOSI*
G04 #@! TO.N,unconnected-(A1-SPI1.MOSI-Pad2)*
X133800000Y-96500000D03*
G04 #@! TO.P,A1,3,SPI1.MISO*
G04 #@! TO.N,unconnected-(A1-SPI1.MISO-Pad3)*
X136340000Y-96500000D03*
G04 #@! TO.P,A1,4,~{SPI1.CS}*
G04 #@! TO.N,unconnected-(A1-~{SPI1.CS}-Pad4)*
X138880000Y-96500000D03*
G04 #@! TO.P,A1,5,SPI1.SCK*
G04 #@! TO.N,unconnected-(A1-SPI1.SCK-Pad5)*
X141420000Y-96500000D03*
G04 #@! TO.P,A1,6,~{I2C3.SMBA}*
G04 #@! TO.N,unconnected-(A1-~{I2C3.SMBA}-Pad6)*
X143960000Y-96500000D03*
G04 #@! TO.P,A1,7,PC3*
G04 #@! TO.N,unconnected-(A1-PC3-Pad7)*
X146500000Y-96500000D03*
G04 #@! TO.P,A1,8,GND*
G04 #@! TO.N,/GND*
X149040000Y-96500000D03*
G04 #@! TO.P,A1,9,3.3V*
G04 #@! TO.N,/3V3*
X166820000Y-96500000D03*
G04 #@! TO.P,A1,10,SWCLK*
G04 #@! TO.N,unconnected-(A1-SWCLK-Pad10)*
X169360000Y-96500000D03*
G04 #@! TO.P,A1,11,GND*
G04 #@! TO.N,/GND*
X171900000Y-96500000D03*
G04 #@! TO.P,A1,12,SWDIO*
G04 #@! TO.N,unconnected-(A1-SWDIO-Pad12)*
X174440000Y-96500000D03*
G04 #@! TO.P,A1,13,USART1.TX*
G04 #@! TO.N,/Flipper_TX*
X176980000Y-96500000D03*
G04 #@! TO.P,A1,14,USART1.RX*
G04 #@! TO.N,/Flipper_RX*
X179520000Y-96500000D03*
G04 #@! TO.P,A1,15,I2C3.SDA*
G04 #@! TO.N,unconnected-(A1-I2C3.SDA-Pad15)*
X182060000Y-96500000D03*
G04 #@! TO.P,A1,16,I2C3.SCL*
G04 #@! TO.N,unconnected-(A1-I2C3.SCL-Pad16)*
X184600000Y-96500000D03*
G04 #@! TO.P,A1,17,1W(iBTN)*
G04 #@! TO.N,unconnected-(A1-1W(iBTN)-Pad17)*
X187140000Y-96500000D03*
G04 #@! TO.P,A1,18,GND*
G04 #@! TO.N,/GND*
X189680000Y-96500000D03*
G04 #@! TD*
D12*
G04 #@! TO.N,/GND*
X134150000Y-94625000D03*
X172675000Y-92050000D03*
X174250000Y-108400000D03*
X149875000Y-92475000D03*
X149000000Y-108000000D03*
G04 #@! TD*
G04 #@! TA.AperFunction,Conductor*
G04 #@! TO.N,/GND*
G36*
X188521338Y-71545468D02*
G01*
X188531250Y-71545873D01*
X188879601Y-71574092D01*
X188892044Y-71575738D01*
X189237110Y-71639338D01*
X189249333Y-71642238D01*
X189586176Y-71740451D01*
X189598032Y-71744570D01*
X189923211Y-71876393D01*
X189934603Y-71881699D01*
X190244738Y-72045760D01*
X190255539Y-72052194D01*
X190547481Y-72246826D01*
X190557574Y-72254322D01*
X190828284Y-72477496D01*
X190837568Y-72485975D01*
X191084304Y-72735432D01*
X191092681Y-72744808D01*
X191312883Y-73017962D01*
X191320267Y-73028137D01*
X191511677Y-73322186D01*
X191517993Y-73333057D01*
X191678643Y-73644975D01*
X191683826Y-73656430D01*
X191742189Y-73805061D01*
X191802175Y-73957827D01*
X191812067Y-73983017D01*
X191816062Y-73994935D01*
X191821642Y-74014886D01*
X191910572Y-74332832D01*
X191913340Y-74345096D01*
X191973146Y-74690810D01*
X191974659Y-74703291D01*
X191999206Y-75054082D01*
X191999508Y-75062658D01*
X192010993Y-92833786D01*
X192013641Y-96931618D01*
X192013728Y-97065420D01*
X191994087Y-97132472D01*
X191941312Y-97178261D01*
X191889728Y-97189500D01*
X191222475Y-97189500D01*
X191077525Y-97189500D01*
X191075886Y-97189938D01*
X191074452Y-97189904D01*
X191069469Y-97190561D01*
X191069366Y-97189783D01*
X191006038Y-97188276D01*
X190948176Y-97149113D01*
X190920672Y-97084885D01*
X190929236Y-97022707D01*
X190931094Y-97018221D01*
X190996757Y-96816129D01*
X190996757Y-96816126D01*
X191007231Y-96750000D01*
X190055278Y-96750000D01*
X190099333Y-96673694D01*
X190130000Y-96559244D01*
X190130000Y-96440756D01*
X190099333Y-96326306D01*
X190055278Y-96250000D01*
X191007231Y-96250000D01*
X190996757Y-96183873D01*
X190996757Y-96183870D01*
X190931095Y-95981782D01*
X190834620Y-95792442D01*
X190709727Y-95620540D01*
X190709723Y-95620535D01*
X190559464Y-95470276D01*
X190559459Y-95470272D01*
X190387557Y-95345379D01*
X190198215Y-95248903D01*
X189996124Y-95183241D01*
X189930000Y-95172768D01*
X189930000Y-96124722D01*
X189853694Y-96080667D01*
X189739244Y-96050000D01*
X189620756Y-96050000D01*
X189506306Y-96080667D01*
X189430000Y-96124722D01*
X189430000Y-95172768D01*
X189429999Y-95172768D01*
X189363875Y-95183241D01*
X189161784Y-95248903D01*
X188972442Y-95345379D01*
X188800540Y-95470272D01*
X188800535Y-95470276D01*
X188650276Y-95620535D01*
X188650272Y-95620540D01*
X188525379Y-95792442D01*
X188428905Y-95981781D01*
X188419506Y-96010708D01*
X188380068Y-96068383D01*
X188315709Y-96095581D01*
X188246862Y-96083666D01*
X188195387Y-96036421D01*
X188191090Y-96028684D01*
X188167191Y-95981780D01*
X188123996Y-95897006D01*
X188110396Y-95878287D01*
X188017558Y-95750505D01*
X188017554Y-95750500D01*
X187889499Y-95622445D01*
X187889494Y-95622441D01*
X187742997Y-95516006D01*
X187742996Y-95516005D01*
X187742994Y-95516004D01*
X187666906Y-95477235D01*
X187581639Y-95433788D01*
X187581636Y-95433787D01*
X187409410Y-95377829D01*
X187230551Y-95349500D01*
X187230546Y-95349500D01*
X187049454Y-95349500D01*
X187049449Y-95349500D01*
X186870589Y-95377829D01*
X186698363Y-95433787D01*
X186698360Y-95433788D01*
X186537002Y-95516006D01*
X186390505Y-95622441D01*
X186390500Y-95622445D01*
X186262445Y-95750500D01*
X186262441Y-95750505D01*
X186156006Y-95897002D01*
X186073788Y-96058360D01*
X186073787Y-96058363D01*
X186017829Y-96230589D01*
X185992473Y-96390678D01*
X185962544Y-96453813D01*
X185903232Y-96490744D01*
X185833369Y-96489746D01*
X185775137Y-96451136D01*
X185747527Y-96390678D01*
X185725245Y-96250000D01*
X185722171Y-96230591D01*
X185678530Y-96096275D01*
X185666212Y-96058363D01*
X185666211Y-96058360D01*
X185627191Y-95981780D01*
X185583996Y-95897006D01*
X185570396Y-95878287D01*
X185477558Y-95750505D01*
X185477554Y-95750500D01*
X185349499Y-95622445D01*
X185349494Y-95622441D01*
X185202997Y-95516006D01*
X185202996Y-95516005D01*
X185202994Y-95516004D01*
X185126906Y-95477235D01*
X185041639Y-95433788D01*
X185041636Y-95433787D01*
X184869410Y-95377829D01*
X184690551Y-95349500D01*
X184690546Y-95349500D01*
X184509454Y-95349500D01*
X184509449Y-95349500D01*
X184330589Y-95377829D01*
X184158363Y-95433787D01*
X184158360Y-95433788D01*
X183997002Y-95516006D01*
X183850505Y-95622441D01*
X183850500Y-95622445D01*
X183722445Y-95750500D01*
X183722441Y-95750505D01*
X183616006Y-95897002D01*
X183533788Y-96058360D01*
X183533787Y-96058363D01*
X183477829Y-96230589D01*
X183452473Y-96390678D01*
X183422544Y-96453813D01*
X183363232Y-96490744D01*
X183293369Y-96489746D01*
X183235137Y-96451136D01*
X183207527Y-96390678D01*
X183185245Y-96250000D01*
X183182171Y-96230591D01*
X183138530Y-96096275D01*
X183126212Y-96058363D01*
X183126211Y-96058360D01*
X183087191Y-95981780D01*
X183043996Y-95897006D01*
X183030396Y-95878287D01*
X182937558Y-95750505D01*
X182937554Y-95750500D01*
X182809499Y-95622445D01*
X182809494Y-95622441D01*
X182662997Y-95516006D01*
X182662996Y-95516005D01*
X182662994Y-95516004D01*
X182586906Y-95477235D01*
X182501639Y-95433788D01*
X182501636Y-95433787D01*
X182329410Y-95377829D01*
X182150551Y-95349500D01*
X182150546Y-95349500D01*
X181969454Y-95349500D01*
X181969449Y-95349500D01*
X181790589Y-95377829D01*
X181618363Y-95433787D01*
X181618360Y-95433788D01*
X181457002Y-95516006D01*
X181310505Y-95622441D01*
X181310500Y-95622445D01*
X181182445Y-95750500D01*
X181182441Y-95750505D01*
X181076006Y-95897002D01*
X180993788Y-96058360D01*
X180993787Y-96058363D01*
X180937829Y-96230589D01*
X180912473Y-96390678D01*
X180882544Y-96453813D01*
X180823232Y-96490744D01*
X180753369Y-96489746D01*
X180695137Y-96451136D01*
X180667527Y-96390678D01*
X180645245Y-96250000D01*
X180642171Y-96230591D01*
X180598530Y-96096275D01*
X180586212Y-96058363D01*
X180586211Y-96058360D01*
X180547191Y-95981780D01*
X180503996Y-95897006D01*
X180490396Y-95878287D01*
X180397558Y-95750505D01*
X180397554Y-95750500D01*
X180269499Y-95622445D01*
X180269494Y-95622441D01*
X180122997Y-95516006D01*
X180122996Y-95516005D01*
X180122994Y-95516004D01*
X180046906Y-95477235D01*
X179961639Y-95433788D01*
X179961636Y-95433787D01*
X179789410Y-95377829D01*
X179610551Y-95349500D01*
X179610546Y-95349500D01*
X179429454Y-95349500D01*
X179429449Y-95349500D01*
X179250589Y-95377829D01*
X179078363Y-95433787D01*
X179078360Y-95433788D01*
X178917002Y-95516006D01*
X178770505Y-95622441D01*
X178770500Y-95622445D01*
X178642445Y-95750500D01*
X178642441Y-95750505D01*
X178536006Y-95897002D01*
X178453788Y-96058360D01*
X178453787Y-96058363D01*
X178397829Y-96230589D01*
X178372473Y-96390678D01*
X178342544Y-96453813D01*
X178283232Y-96490744D01*
X178213369Y-96489746D01*
X178155137Y-96451136D01*
X178127527Y-96390678D01*
X178105245Y-96250000D01*
X178102171Y-96230591D01*
X178058530Y-96096275D01*
X178046212Y-96058363D01*
X178046211Y-96058360D01*
X178007191Y-95981780D01*
X177963996Y-95897006D01*
X177950396Y-95878287D01*
X177857558Y-95750505D01*
X177857554Y-95750500D01*
X177729499Y-95622445D01*
X177729494Y-95622441D01*
X177582997Y-95516006D01*
X177582996Y-95516005D01*
X177582994Y-95516004D01*
X177506906Y-95477235D01*
X177421639Y-95433788D01*
X177421636Y-95433787D01*
X177249410Y-95377829D01*
X177070551Y-95349500D01*
X177070546Y-95349500D01*
X176889454Y-95349500D01*
X176889449Y-95349500D01*
X176710589Y-95377829D01*
X176538363Y-95433787D01*
X176538360Y-95433788D01*
X176377002Y-95516006D01*
X176230505Y-95622441D01*
X176230500Y-95622445D01*
X176102445Y-95750500D01*
X176102441Y-95750505D01*
X175996006Y-95897002D01*
X175913788Y-96058360D01*
X175913787Y-96058363D01*
X175857829Y-96230589D01*
X175832473Y-96390678D01*
X175802544Y-96453813D01*
X175743232Y-96490744D01*
X175673369Y-96489746D01*
X175615137Y-96451136D01*
X175587527Y-96390678D01*
X175565245Y-96250000D01*
X175562171Y-96230591D01*
X175518530Y-96096275D01*
X175506212Y-96058363D01*
X175506211Y-96058360D01*
X175467191Y-95981780D01*
X175423996Y-95897006D01*
X175410396Y-95878287D01*
X175317558Y-95750505D01*
X175317554Y-95750500D01*
X175189499Y-95622445D01*
X175189494Y-95622441D01*
X175042997Y-95516006D01*
X175042996Y-95516005D01*
X175042994Y-95516004D01*
X174966906Y-95477235D01*
X174881639Y-95433788D01*
X174881636Y-95433787D01*
X174709410Y-95377829D01*
X174530551Y-95349500D01*
X174530546Y-95349500D01*
X174349454Y-95349500D01*
X174349449Y-95349500D01*
X174170589Y-95377829D01*
X173998363Y-95433787D01*
X173998360Y-95433788D01*
X173837002Y-95516006D01*
X173690505Y-95622441D01*
X173690500Y-95622445D01*
X173562445Y-95750500D01*
X173562441Y-95750505D01*
X173456004Y-95897004D01*
X173388908Y-96028685D01*
X173340933Y-96079480D01*
X173273112Y-96096275D01*
X173206977Y-96073737D01*
X173163527Y-96019021D01*
X173160492Y-96010705D01*
X173151094Y-95981780D01*
X173054620Y-95792442D01*
X172929727Y-95620540D01*
X172929723Y-95620535D01*
X172779464Y-95470276D01*
X172779459Y-95470272D01*
X172607557Y-95345379D01*
X172418215Y-95248903D01*
X172216124Y-95183241D01*
X172150000Y-95172768D01*
X172150000Y-96124722D01*
X172073694Y-96080667D01*
X171959244Y-96050000D01*
X171840756Y-96050000D01*
X171726306Y-96080667D01*
X171650000Y-96124722D01*
X171650000Y-95172768D01*
X171649999Y-95172768D01*
X171583875Y-95183241D01*
X171381784Y-95248903D01*
X171192442Y-95345379D01*
X171020540Y-95470272D01*
X171020535Y-95470276D01*
X170870276Y-95620535D01*
X170870272Y-95620540D01*
X170745379Y-95792442D01*
X170648905Y-95981781D01*
X170639506Y-96010708D01*
X170600068Y-96068383D01*
X170535709Y-96095581D01*
X170466862Y-96083666D01*
X170415387Y-96036421D01*
X170411090Y-96028684D01*
X170387191Y-95981780D01*
X170343996Y-95897006D01*
X170330396Y-95878287D01*
X170237558Y-95750505D01*
X170237554Y-95750500D01*
X170109499Y-95622445D01*
X170109494Y-95622441D01*
X169962997Y-95516006D01*
X169962996Y-95516005D01*
X169962994Y-95516004D01*
X169886906Y-95477235D01*
X169801639Y-95433788D01*
X169801636Y-95433787D01*
X169629410Y-95377829D01*
X169450551Y-95349500D01*
X169450546Y-95349500D01*
X169269454Y-95349500D01*
X169269449Y-95349500D01*
X169090589Y-95377829D01*
X168918363Y-95433787D01*
X168918360Y-95433788D01*
X168757002Y-95516006D01*
X168610505Y-95622441D01*
X168610500Y-95622445D01*
X168482445Y-95750500D01*
X168482441Y-95750505D01*
X168376006Y-95897002D01*
X168293788Y-96058360D01*
X168293787Y-96058363D01*
X168237829Y-96230589D01*
X168212473Y-96390678D01*
X168182544Y-96453813D01*
X168123232Y-96490744D01*
X168053369Y-96489746D01*
X167995137Y-96451136D01*
X167967527Y-96390678D01*
X167945245Y-96250000D01*
X167942171Y-96230591D01*
X167898530Y-96096275D01*
X167886212Y-96058363D01*
X167886211Y-96058360D01*
X167847191Y-95981780D01*
X167803996Y-95897006D01*
X167790396Y-95878287D01*
X167697558Y-95750505D01*
X167697554Y-95750500D01*
X167569499Y-95622445D01*
X167569494Y-95622441D01*
X167422997Y-95516006D01*
X167422996Y-95516005D01*
X167422994Y-95516004D01*
X167346906Y-95477235D01*
X167261639Y-95433788D01*
X167261636Y-95433787D01*
X167089410Y-95377829D01*
X166910551Y-95349500D01*
X166910546Y-95349500D01*
X166729454Y-95349500D01*
X166729449Y-95349500D01*
X166550589Y-95377829D01*
X166378363Y-95433787D01*
X166378360Y-95433788D01*
X166217002Y-95516006D01*
X166070505Y-95622441D01*
X166070500Y-95622445D01*
X165942445Y-95750500D01*
X165942441Y-95750505D01*
X165836006Y-95897002D01*
X165753788Y-96058360D01*
X165753787Y-96058363D01*
X165697829Y-96230589D01*
X165669500Y-96409448D01*
X165669500Y-96590551D01*
X165697829Y-96769410D01*
X165753787Y-96941636D01*
X165753788Y-96941639D01*
X165836006Y-97102997D01*
X165942441Y-97249494D01*
X165942445Y-97249499D01*
X166070500Y-97377554D01*
X166070505Y-97377558D01*
X166198287Y-97470396D01*
X166217006Y-97483996D01*
X166306750Y-97529723D01*
X166378360Y-97566211D01*
X166378363Y-97566212D01*
X166464476Y-97594191D01*
X166550591Y-97622171D01*
X166633429Y-97635291D01*
X166729449Y-97650500D01*
X166729454Y-97650500D01*
X166910551Y-97650500D01*
X166997259Y-97636765D01*
X167089409Y-97622171D01*
X167261639Y-97566211D01*
X167422994Y-97483996D01*
X167569501Y-97377553D01*
X167697553Y-97249501D01*
X167803996Y-97102994D01*
X167886211Y-96941639D01*
X167942171Y-96769409D01*
X167957331Y-96673694D01*
X167967527Y-96609321D01*
X167997456Y-96546186D01*
X168056768Y-96509255D01*
X168126630Y-96510253D01*
X168184863Y-96548863D01*
X168212473Y-96609321D01*
X168237829Y-96769410D01*
X168293787Y-96941636D01*
X168293788Y-96941639D01*
X168376006Y-97102997D01*
X168482441Y-97249494D01*
X168482445Y-97249499D01*
X168610500Y-97377554D01*
X168610505Y-97377558D01*
X168738287Y-97470396D01*
X168757006Y-97483996D01*
X168846750Y-97529723D01*
X168918360Y-97566211D01*
X168918363Y-97566212D01*
X169004476Y-97594191D01*
X169090591Y-97622171D01*
X169173429Y-97635291D01*
X169269449Y-97650500D01*
X169269454Y-97650500D01*
X169450551Y-97650500D01*
X169537259Y-97636765D01*
X169629409Y-97622171D01*
X169801639Y-97566211D01*
X169962994Y-97483996D01*
X170109501Y-97377553D01*
X170237553Y-97249501D01*
X170343996Y-97102994D01*
X170411090Y-96971314D01*
X170459065Y-96920519D01*
X170526886Y-96903724D01*
X170593021Y-96926262D01*
X170636472Y-96980977D01*
X170639506Y-96989292D01*
X170648904Y-97018217D01*
X170745379Y-97207557D01*
X170870272Y-97379459D01*
X170870276Y-97379464D01*
X171020535Y-97529723D01*
X171020540Y-97529727D01*
X171192442Y-97654620D01*
X171381782Y-97751095D01*
X171583871Y-97816757D01*
X171650000Y-97827231D01*
X171650000Y-96875277D01*
X171726306Y-96919333D01*
X171840756Y-96950000D01*
X171959244Y-96950000D01*
X172073694Y-96919333D01*
X172150000Y-96875277D01*
X172150000Y-97827231D01*
X172216126Y-97816757D01*
X172216129Y-97816757D01*
X172418217Y-97751095D01*
X172607557Y-97654620D01*
X172779459Y-97529727D01*
X172779464Y-97529723D01*
X172929723Y-97379464D01*
X172929727Y-97379459D01*
X173054620Y-97207557D01*
X173151095Y-97018217D01*
X173160492Y-96989295D01*
X173199928Y-96931618D01*
X173264286Y-96904419D01*
X173333133Y-96916331D01*
X173384610Y-96963574D01*
X173388908Y-96971314D01*
X173456004Y-97102995D01*
X173562441Y-97249494D01*
X173562445Y-97249499D01*
X173690500Y-97377554D01*
X173690505Y-97377558D01*
X173818287Y-97470396D01*
X173837006Y-97483996D01*
X173926750Y-97529723D01*
X173998360Y-97566211D01*
X173998363Y-97566212D01*
X174084476Y-97594191D01*
X174170591Y-97622171D01*
X174253429Y-97635291D01*
X174349449Y-97650500D01*
X174349454Y-97650500D01*
X174530551Y-97650500D01*
X174617259Y-97636765D01*
X174709409Y-97622171D01*
X174881639Y-97566211D01*
X175042994Y-97483996D01*
X175189501Y-97377553D01*
X175317553Y-97249501D01*
X175423996Y-97102994D01*
X175506211Y-96941639D01*
X175562171Y-96769409D01*
X175577331Y-96673694D01*
X175587527Y-96609321D01*
X175617456Y-96546186D01*
X175676768Y-96509255D01*
X175746630Y-96510253D01*
X175804863Y-96548863D01*
X175832473Y-96609321D01*
X175857829Y-96769410D01*
X175913787Y-96941636D01*
X175913788Y-96941639D01*
X175996006Y-97102997D01*
X176102441Y-97249494D01*
X176102445Y-97249499D01*
X176230500Y-97377554D01*
X176230505Y-97377558D01*
X176358287Y-97470396D01*
X176377006Y-97483996D01*
X176466750Y-97529723D01*
X176538360Y-97566211D01*
X176538363Y-97566212D01*
X176624476Y-97594191D01*
X176710591Y-97622171D01*
X176793429Y-97635291D01*
X176889449Y-97650500D01*
X176889454Y-97650500D01*
X177070551Y-97650500D01*
X177157259Y-97636765D01*
X177249409Y-97622171D01*
X177421639Y-97566211D01*
X177582994Y-97483996D01*
X177729501Y-97377553D01*
X177857553Y-97249501D01*
X177963996Y-97102994D01*
X178046211Y-96941639D01*
X178102171Y-96769409D01*
X178117331Y-96673694D01*
X178127527Y-96609321D01*
X178157456Y-96546186D01*
X178216768Y-96509255D01*
X178286630Y-96510253D01*
X178344863Y-96548863D01*
X178372473Y-96609321D01*
X178397829Y-96769410D01*
X178453787Y-96941636D01*
X178453788Y-96941639D01*
X178536006Y-97102997D01*
X178642441Y-97249494D01*
X178642445Y-97249499D01*
X178770500Y-97377554D01*
X178770505Y-97377558D01*
X178898287Y-97470396D01*
X178917006Y-97483996D01*
X179006750Y-97529723D01*
X179078360Y-97566211D01*
X179078363Y-97566212D01*
X179164476Y-97594191D01*
X179250591Y-97622171D01*
X179333429Y-97635291D01*
X179429449Y-97650500D01*
X179429454Y-97650500D01*
X179610551Y-97650500D01*
X179697259Y-97636765D01*
X179789409Y-97622171D01*
X179961639Y-97566211D01*
X180122994Y-97483996D01*
X180269501Y-97377553D01*
X180397553Y-97249501D01*
X180503996Y-97102994D01*
X180586211Y-96941639D01*
X180642171Y-96769409D01*
X180657331Y-96673694D01*
X180667527Y-96609321D01*
X180697456Y-96546186D01*
X180756768Y-96509255D01*
X180826630Y-96510253D01*
X180884863Y-96548863D01*
X180912473Y-96609321D01*
X180937829Y-96769410D01*
X180993787Y-96941636D01*
X180993788Y-96941639D01*
X181076006Y-97102997D01*
X181182441Y-97249494D01*
X181182445Y-97249499D01*
X181310500Y-97377554D01*
X181310505Y-97377558D01*
X181438287Y-97470396D01*
X181457006Y-97483996D01*
X181546750Y-97529723D01*
X181618360Y-97566211D01*
X181618363Y-97566212D01*
X181704476Y-97594191D01*
X181790591Y-97622171D01*
X181873429Y-97635291D01*
X181969449Y-97650500D01*
X181969454Y-97650500D01*
X182150551Y-97650500D01*
X182237259Y-97636765D01*
X182329409Y-97622171D01*
X182501639Y-97566211D01*
X182662994Y-97483996D01*
X182809501Y-97377553D01*
X182937553Y-97249501D01*
X183043996Y-97102994D01*
X183126211Y-96941639D01*
X183182171Y-96769409D01*
X183197331Y-96673694D01*
X183207527Y-96609321D01*
X183237456Y-96546186D01*
X183296768Y-96509255D01*
X183366630Y-96510253D01*
X183424863Y-96548863D01*
X183452473Y-96609321D01*
X183477829Y-96769410D01*
X183533787Y-96941636D01*
X183533788Y-96941639D01*
X183616006Y-97102997D01*
X183722441Y-97249494D01*
X183722445Y-97249499D01*
X183850500Y-97377554D01*
X183850505Y-97377558D01*
X183978287Y-97470396D01*
X183997006Y-97483996D01*
X184086750Y-97529723D01*
X184158360Y-97566211D01*
X184158363Y-97566212D01*
X184244476Y-97594191D01*
X184330591Y-97622171D01*
X184413429Y-97635291D01*
X184509449Y-97650500D01*
X184509454Y-97650500D01*
X184690551Y-97650500D01*
X184777259Y-97636765D01*
X184869409Y-97622171D01*
X185041639Y-97566211D01*
X185202994Y-97483996D01*
X185349501Y-97377553D01*
X185477553Y-97249501D01*
X185583996Y-97102994D01*
X185666211Y-96941639D01*
X185722171Y-96769409D01*
X185737331Y-96673694D01*
X185747527Y-96609321D01*
X185777456Y-96546186D01*
X185836768Y-96509255D01*
X185906630Y-96510253D01*
X185964863Y-96548863D01*
X185992473Y-96609321D01*
X186017829Y-96769410D01*
X186073787Y-96941636D01*
X186073788Y-96941639D01*
X186156006Y-97102997D01*
X186262441Y-97249494D01*
X186262445Y-97249499D01*
X186390500Y-97377554D01*
X186390505Y-97377558D01*
X186518287Y-97470396D01*
X186537006Y-97483996D01*
X186626750Y-97529723D01*
X186698360Y-97566211D01*
X186698363Y-97566212D01*
X186784476Y-97594191D01*
X186870591Y-97622171D01*
X186953429Y-97635291D01*
X187049449Y-97650500D01*
X187049454Y-97650500D01*
X187230551Y-97650500D01*
X187317259Y-97636765D01*
X187409409Y-97622171D01*
X187581639Y-97566211D01*
X187742994Y-97483996D01*
X187889501Y-97377553D01*
X188017553Y-97249501D01*
X188123996Y-97102994D01*
X188191090Y-96971314D01*
X188239065Y-96920519D01*
X188306886Y-96903724D01*
X188373021Y-96926262D01*
X188416472Y-96980977D01*
X188419506Y-96989292D01*
X188428904Y-97018217D01*
X188525379Y-97207557D01*
X188650272Y-97379459D01*
X188650276Y-97379464D01*
X188800535Y-97529723D01*
X188800540Y-97529727D01*
X188972442Y-97654620D01*
X189161782Y-97751095D01*
X189363871Y-97816757D01*
X189430000Y-97827231D01*
X189430000Y-96875277D01*
X189506306Y-96919333D01*
X189620756Y-96950000D01*
X189739244Y-96950000D01*
X189853694Y-96919333D01*
X189930000Y-96875277D01*
X189930000Y-97827230D01*
X189996126Y-97816757D01*
X189996129Y-97816757D01*
X190198217Y-97751095D01*
X190387554Y-97654622D01*
X190402614Y-97643681D01*
X190468420Y-97620201D01*
X190536474Y-97636026D01*
X190585169Y-97686131D01*
X190599500Y-97743999D01*
X190599500Y-100412475D01*
X190637016Y-100552485D01*
X190637017Y-100552488D01*
X190709488Y-100678011D01*
X190709490Y-100678013D01*
X190709491Y-100678015D01*
X190811985Y-100780509D01*
X190811986Y-100780510D01*
X190811988Y-100780511D01*
X190937511Y-100852982D01*
X190937512Y-100852982D01*
X190937515Y-100852984D01*
X191077525Y-100890500D01*
X191077528Y-100890500D01*
X191222472Y-100890500D01*
X191222475Y-100890500D01*
X191362485Y-100852984D01*
X191488015Y-100780509D01*
X191590509Y-100678015D01*
X191662984Y-100552485D01*
X191700500Y-100412475D01*
X191700500Y-98414500D01*
X191703050Y-98405814D01*
X191701762Y-98396853D01*
X191712740Y-98372812D01*
X191720185Y-98347461D01*
X191727025Y-98341533D01*
X191730787Y-98333297D01*
X191753021Y-98319007D01*
X191772989Y-98301706D01*
X191783503Y-98299418D01*
X191789565Y-98295523D01*
X191824500Y-98290500D01*
X191890600Y-98290500D01*
X191957639Y-98310185D01*
X192003394Y-98362989D01*
X192014600Y-98414420D01*
X192029512Y-121492620D01*
X192029313Y-121499719D01*
X192010322Y-121834705D01*
X192009071Y-121846595D01*
X191958219Y-122176177D01*
X191955828Y-122187890D01*
X191873478Y-122511024D01*
X191869971Y-122522454D01*
X191756879Y-122836172D01*
X191752287Y-122847211D01*
X191609505Y-123148583D01*
X191603871Y-123159128D01*
X191432741Y-123445331D01*
X191426118Y-123455284D01*
X191228212Y-123723691D01*
X191220661Y-123732960D01*
X190997833Y-123981051D01*
X190989425Y-123989550D01*
X190743735Y-124215034D01*
X190734547Y-124222684D01*
X190468294Y-124423452D01*
X190458413Y-124430182D01*
X190174042Y-124604389D01*
X190163558Y-124610135D01*
X189863746Y-124756139D01*
X189852766Y-124760845D01*
X189669059Y-124829309D01*
X189540289Y-124877298D01*
X189528898Y-124880928D01*
X189206645Y-124966750D01*
X189194957Y-124969266D01*
X188865951Y-125023652D01*
X188854075Y-125025031D01*
X188521156Y-125047493D01*
X188512658Y-125047774D01*
X132478709Y-124979539D01*
X132468848Y-124979134D01*
X132120409Y-124950908D01*
X132107945Y-124949259D01*
X131762894Y-124885662D01*
X131750661Y-124882759D01*
X131413833Y-124784551D01*
X131401957Y-124780425D01*
X131076794Y-124648609D01*
X131065396Y-124643300D01*
X130755261Y-124479239D01*
X130744460Y-124472805D01*
X130452518Y-124278173D01*
X130442425Y-124270677D01*
X130171715Y-124047503D01*
X130162431Y-124039024D01*
X129915695Y-123789567D01*
X129907318Y-123780191D01*
X129796932Y-123643261D01*
X129687114Y-123507035D01*
X129679732Y-123496862D01*
X129676516Y-123491922D01*
X129521140Y-123253229D01*
X129488322Y-123202813D01*
X129482006Y-123191942D01*
X129321356Y-122880024D01*
X129316173Y-122868569D01*
X129268701Y-122747673D01*
X129187927Y-122541967D01*
X129183941Y-122530076D01*
X129089426Y-122192164D01*
X129086659Y-122179903D01*
X129086014Y-122176177D01*
X129026853Y-121834189D01*
X129025341Y-121821709D01*
X129003544Y-121510242D01*
X129003084Y-121503663D01*
X134911046Y-121503663D01*
X134911047Y-121503669D01*
X134911047Y-121503675D01*
X134933077Y-121771841D01*
X134948018Y-121840683D01*
X134990145Y-122034791D01*
X135081263Y-122287966D01*
X135202513Y-122522454D01*
X135204849Y-122526971D01*
X135358763Y-122747673D01*
X135358765Y-122747675D01*
X135358767Y-122747678D01*
X135540325Y-122946231D01*
X135540343Y-122946249D01*
X135746413Y-123119230D01*
X135746417Y-123119233D01*
X135746422Y-123119237D01*
X135973448Y-123263660D01*
X135973451Y-123263661D01*
X135973455Y-123263664D01*
X136178546Y-123358922D01*
X136217480Y-123377006D01*
X136474286Y-123457312D01*
X136739417Y-123503185D01*
X136971512Y-123512375D01*
X137008273Y-123513831D01*
X137008274Y-123513830D01*
X137008277Y-123513831D01*
X137276205Y-123489064D01*
X137538557Y-123429314D01*
X137790786Y-123335617D01*
X138028520Y-123209597D01*
X138247639Y-123053437D01*
X138298497Y-123006009D01*
X138304761Y-123002446D01*
X138346320Y-122961411D01*
X138394201Y-122916724D01*
X138394204Y-122916718D01*
X138399371Y-122910446D01*
X138399879Y-122910865D01*
X138408766Y-122899754D01*
X148097311Y-113333687D01*
X148101633Y-113329621D01*
X148190459Y-113249980D01*
X148190466Y-113249974D01*
X148365557Y-113045665D01*
X148512290Y-112820126D01*
X148628122Y-112577264D01*
X148711045Y-112321291D01*
X148759623Y-112056642D01*
X148767699Y-111894559D01*
X148773013Y-111787916D01*
X148773012Y-111787912D01*
X148773013Y-111787905D01*
X148769834Y-111749213D01*
X171352748Y-111749213D01*
X171377515Y-112017138D01*
X171377517Y-112017149D01*
X171437265Y-112279495D01*
X171437265Y-112279496D01*
X171530964Y-112531729D01*
X171555102Y-112577264D01*
X171656983Y-112769460D01*
X171813143Y-112988579D01*
X171813145Y-112988581D01*
X171813153Y-112988590D01*
X171854851Y-113033305D01*
X171854852Y-113033305D01*
X171864761Y-113043931D01*
X171868348Y-113050235D01*
X171909685Y-113092100D01*
X171949856Y-113135141D01*
X171949860Y-113135145D01*
X171956129Y-113140308D01*
X171955652Y-113140886D01*
X171966147Y-113149284D01*
X181532874Y-122838233D01*
X181536962Y-122842578D01*
X181616598Y-122931397D01*
X181616608Y-122931408D01*
X181820910Y-123106493D01*
X181820915Y-123106497D01*
X182046454Y-123253230D01*
X182289317Y-123369062D01*
X182289318Y-123369063D01*
X182545284Y-123451984D01*
X182545291Y-123451986D01*
X182679637Y-123476645D01*
X182809938Y-123500563D01*
X182939871Y-123507037D01*
X183078663Y-123513953D01*
X183078665Y-123513952D01*
X183078675Y-123513953D01*
X183346841Y-123491923D01*
X183609790Y-123434855D01*
X183862963Y-123343738D01*
X184101971Y-123220151D01*
X184322673Y-123066237D01*
X184521242Y-122884664D01*
X184529836Y-122874427D01*
X184636232Y-122747678D01*
X184694237Y-122678578D01*
X184838660Y-122451552D01*
X184862553Y-122400112D01*
X184937088Y-122239638D01*
X184952006Y-122207520D01*
X185032312Y-121950714D01*
X185078185Y-121685583D01*
X185088831Y-121416723D01*
X185064064Y-121148795D01*
X185004314Y-120886443D01*
X184910617Y-120634214D01*
X184784597Y-120396480D01*
X184628437Y-120177361D01*
X184590921Y-120137131D01*
X184581009Y-120126502D01*
X184577447Y-120120240D01*
X184536411Y-120078679D01*
X184491724Y-120030799D01*
X184491718Y-120030795D01*
X184485448Y-120025630D01*
X184485864Y-120025124D01*
X184474754Y-120016232D01*
X177684389Y-113138927D01*
X174908683Y-110327682D01*
X174904626Y-110323372D01*
X174824974Y-110234534D01*
X174824973Y-110234533D01*
X174824971Y-110234531D01*
X174620669Y-110059446D01*
X174620666Y-110059444D01*
X174620665Y-110059443D01*
X174395126Y-109912710D01*
X174395124Y-109912709D01*
X174395123Y-109912708D01*
X174152264Y-109796878D01*
X174152261Y-109796876D01*
X173896295Y-109713955D01*
X173896288Y-109713953D01*
X173631654Y-109665379D01*
X173631650Y-109665378D01*
X173631642Y-109665377D01*
X173631634Y-109665376D01*
X173631629Y-109665376D01*
X173362916Y-109651986D01*
X173362910Y-109651987D01*
X173362908Y-109651987D01*
X173362905Y-109651987D01*
X173094739Y-109674017D01*
X172831788Y-109731085D01*
X172578613Y-109822203D01*
X172339615Y-109945785D01*
X172118901Y-110099707D01*
X171920348Y-110281265D01*
X171920330Y-110281283D01*
X171747349Y-110487353D01*
X171747341Y-110487364D01*
X171602919Y-110714389D01*
X171602915Y-110714395D01*
X171489575Y-110958416D01*
X171489572Y-110958425D01*
X171409270Y-111215217D01*
X171409269Y-111215222D01*
X171363395Y-111480357D01*
X171352748Y-111749213D01*
X148769834Y-111749213D01*
X148750983Y-111519739D01*
X148693915Y-111256790D01*
X148602798Y-111003617D01*
X148479211Y-110764609D01*
X148325297Y-110543907D01*
X148185608Y-110391142D01*
X148143734Y-110345348D01*
X148143716Y-110345330D01*
X147937646Y-110172349D01*
X147937635Y-110172341D01*
X147760169Y-110059446D01*
X147710612Y-110027920D01*
X147710610Y-110027919D01*
X147710604Y-110027915D01*
X147466583Y-109914575D01*
X147466574Y-109914572D01*
X147209782Y-109834270D01*
X147209777Y-109834269D01*
X147209774Y-109834268D01*
X146944643Y-109788395D01*
X146935451Y-109788031D01*
X146675786Y-109777748D01*
X146407861Y-109802515D01*
X146407856Y-109802515D01*
X146407855Y-109802516D01*
X146407853Y-109802516D01*
X146407850Y-109802517D01*
X146145504Y-109862265D01*
X146145503Y-109862265D01*
X145893270Y-109955964D01*
X145655538Y-110081984D01*
X145436434Y-110238132D01*
X145436417Y-110238146D01*
X145391687Y-110279858D01*
X145390167Y-110281276D01*
X145381068Y-110289761D01*
X145374765Y-110293348D01*
X145332915Y-110334669D01*
X145331636Y-110335862D01*
X145289857Y-110374856D01*
X145284693Y-110381127D01*
X145284118Y-110380653D01*
X145275720Y-110391142D01*
X135586775Y-119957865D01*
X135582431Y-119961952D01*
X135493602Y-120041597D01*
X135493591Y-120041608D01*
X135318506Y-120245910D01*
X135171770Y-120471454D01*
X135171768Y-120471456D01*
X135055938Y-120714315D01*
X135055936Y-120714318D01*
X134973015Y-120970284D01*
X134973013Y-120970291D01*
X134924439Y-121234925D01*
X134924436Y-121234950D01*
X134911046Y-121503663D01*
X129003084Y-121503663D01*
X129000807Y-121471129D01*
X129000506Y-121462467D01*
X129009391Y-100780506D01*
X129010408Y-98414447D01*
X129030121Y-98347416D01*
X129082945Y-98301684D01*
X129134408Y-98290500D01*
X129135500Y-98290500D01*
X129202539Y-98310185D01*
X129248294Y-98362989D01*
X129259500Y-98414500D01*
X129259500Y-100412475D01*
X129297016Y-100552485D01*
X129297017Y-100552488D01*
X129369488Y-100678011D01*
X129369490Y-100678013D01*
X129369491Y-100678015D01*
X129471985Y-100780509D01*
X129471986Y-100780510D01*
X129471988Y-100780511D01*
X129597511Y-100852982D01*
X129597512Y-100852982D01*
X129597515Y-100852984D01*
X129737525Y-100890500D01*
X129737528Y-100890500D01*
X129882472Y-100890500D01*
X129882475Y-100890500D01*
X130022485Y-100852984D01*
X130148015Y-100780509D01*
X130250509Y-100678015D01*
X130322984Y-100552485D01*
X130360500Y-100412475D01*
X130360500Y-97774499D01*
X130380185Y-97707460D01*
X130432989Y-97661705D01*
X130484495Y-97650499D01*
X132154864Y-97650499D01*
X132154879Y-97650497D01*
X132154882Y-97650497D01*
X132179987Y-97647586D01*
X132179988Y-97647585D01*
X132179991Y-97647585D01*
X132282765Y-97602206D01*
X132362206Y-97522765D01*
X132407585Y-97419991D01*
X132410500Y-97394865D01*
X132410499Y-96657125D01*
X132430183Y-96590089D01*
X132482987Y-96544334D01*
X132552146Y-96534390D01*
X132615702Y-96563415D01*
X132653476Y-96622193D01*
X132656972Y-96637729D01*
X132677829Y-96769410D01*
X132733787Y-96941636D01*
X132733788Y-96941639D01*
X132816006Y-97102997D01*
X132922441Y-97249494D01*
X132922445Y-97249499D01*
X133050500Y-97377554D01*
X133050505Y-97377558D01*
X133178287Y-97470396D01*
X133197006Y-97483996D01*
X133286750Y-97529723D01*
X133358360Y-97566211D01*
X133358363Y-97566212D01*
X133444476Y-97594191D01*
X133530591Y-97622171D01*
X133613429Y-97635291D01*
X133709449Y-97650500D01*
X133709454Y-97650500D01*
X133890551Y-97650500D01*
X133977259Y-97636765D01*
X134069409Y-97622171D01*
X134241639Y-97566211D01*
X134402994Y-97483996D01*
X134549501Y-97377553D01*
X134677553Y-97249501D01*
X134783996Y-97102994D01*
X134866211Y-96941639D01*
X134922171Y-96769409D01*
X134937331Y-96673694D01*
X134947527Y-96609321D01*
X134977456Y-96546186D01*
X135036768Y-96509255D01*
X135106630Y-96510253D01*
X135164863Y-96548863D01*
X135192473Y-96609321D01*
X135217829Y-96769410D01*
X135273787Y-96941636D01*
X135273788Y-96941639D01*
X135356006Y-97102997D01*
X135462441Y-97249494D01*
X135462445Y-97249499D01*
X135590500Y-97377554D01*
X135590505Y-97377558D01*
X135718287Y-97470396D01*
X135737006Y-97483996D01*
X135826750Y-97529723D01*
X135898360Y-97566211D01*
X135898363Y-97566212D01*
X135984476Y-97594191D01*
X136070591Y-97622171D01*
X136153429Y-97635291D01*
X136249449Y-97650500D01*
X136249454Y-97650500D01*
X136430551Y-97650500D01*
X136517259Y-97636765D01*
X136609409Y-97622171D01*
X136781639Y-97566211D01*
X136942994Y-97483996D01*
X137089501Y-97377553D01*
X137217553Y-97249501D01*
X137323996Y-97102994D01*
X137406211Y-96941639D01*
X137462171Y-96769409D01*
X137477331Y-96673694D01*
X137487527Y-96609321D01*
X137517456Y-96546186D01*
X137576768Y-96509255D01*
X137646630Y-96510253D01*
X137704863Y-96548863D01*
X137732473Y-96609321D01*
X137757829Y-96769410D01*
X137813787Y-96941636D01*
X137813788Y-96941639D01*
X137896006Y-97102997D01*
X138002441Y-97249494D01*
X138002445Y-97249499D01*
X138130500Y-97377554D01*
X138130505Y-97377558D01*
X138258287Y-97470396D01*
X138277006Y-97483996D01*
X138366750Y-97529723D01*
X138438360Y-97566211D01*
X138438363Y-97566212D01*
X138524476Y-97594191D01*
X138610591Y-97622171D01*
X138693429Y-97635291D01*
X138789449Y-97650500D01*
X138789454Y-97650500D01*
X138970551Y-97650500D01*
X139057259Y-97636765D01*
X139149409Y-97622171D01*
X139321639Y-97566211D01*
X139482994Y-97483996D01*
X139629501Y-97377553D01*
X139757553Y-97249501D01*
X139863996Y-97102994D01*
X139946211Y-96941639D01*
X140002171Y-96769409D01*
X140017331Y-96673694D01*
X140027527Y-96609321D01*
X140057456Y-96546186D01*
X140116768Y-96509255D01*
X140186630Y-96510253D01*
X140244863Y-96548863D01*
X140272473Y-96609321D01*
X140297829Y-96769410D01*
X140353787Y-96941636D01*
X140353788Y-96941639D01*
X140436006Y-97102997D01*
X140542441Y-97249494D01*
X140542445Y-97249499D01*
X140670500Y-97377554D01*
X140670505Y-97377558D01*
X140798287Y-97470396D01*
X140817006Y-97483996D01*
X140906750Y-97529723D01*
X140978360Y-97566211D01*
X140978363Y-97566212D01*
X141064476Y-97594191D01*
X141150591Y-97622171D01*
X141233429Y-97635291D01*
X141329449Y-97650500D01*
X141329454Y-97650500D01*
X141510551Y-97650500D01*
X141597259Y-97636765D01*
X141689409Y-97622171D01*
X141861639Y-97566211D01*
X142022994Y-97483996D01*
X142169501Y-97377553D01*
X142297553Y-97249501D01*
X142403996Y-97102994D01*
X142486211Y-96941639D01*
X142542171Y-96769409D01*
X142557331Y-96673694D01*
X142567527Y-96609321D01*
X142597456Y-96546186D01*
X142656768Y-96509255D01*
X142726630Y-96510253D01*
X142784863Y-96548863D01*
X142812473Y-96609321D01*
X142837829Y-96769410D01*
X142893787Y-96941636D01*
X142893788Y-96941639D01*
X142976006Y-97102997D01*
X143082441Y-97249494D01*
X143082445Y-97249499D01*
X143210500Y-97377554D01*
X143210505Y-97377558D01*
X143338287Y-97470396D01*
X143357006Y-97483996D01*
X143446750Y-97529723D01*
X143518360Y-97566211D01*
X143518363Y-97566212D01*
X143604476Y-97594191D01*
X143690591Y-97622171D01*
X143773429Y-97635291D01*
X143869449Y-97650500D01*
X143869454Y-97650500D01*
X144050551Y-97650500D01*
X144137259Y-97636765D01*
X144229409Y-97622171D01*
X144401639Y-97566211D01*
X144562994Y-97483996D01*
X144709501Y-97377553D01*
X144837553Y-97249501D01*
X144943996Y-97102994D01*
X145026211Y-96941639D01*
X145082171Y-96769409D01*
X145097331Y-96673694D01*
X145107527Y-96609321D01*
X145137456Y-96546186D01*
X145196768Y-96509255D01*
X145266630Y-96510253D01*
X145324863Y-96548863D01*
X145352473Y-96609321D01*
X145377829Y-96769410D01*
X145433787Y-96941636D01*
X145433788Y-96941639D01*
X145516006Y-97102997D01*
X145622441Y-97249494D01*
X145622445Y-97249499D01*
X145750500Y-97377554D01*
X145750505Y-97377558D01*
X145878287Y-97470396D01*
X145897006Y-97483996D01*
X145986750Y-97529723D01*
X146058360Y-97566211D01*
X146058363Y-97566212D01*
X146144476Y-97594191D01*
X146230591Y-97622171D01*
X146313429Y-97635291D01*
X146409449Y-97650500D01*
X146409454Y-97650500D01*
X146590551Y-97650500D01*
X146677259Y-97636765D01*
X146769409Y-97622171D01*
X146941639Y-97566211D01*
X147102994Y-97483996D01*
X147249501Y-97377553D01*
X147377553Y-97249501D01*
X147483996Y-97102994D01*
X147551090Y-96971314D01*
X147599065Y-96920519D01*
X147666886Y-96903724D01*
X147733021Y-96926262D01*
X147776472Y-96980977D01*
X147779506Y-96989292D01*
X147788904Y-97018217D01*
X147885379Y-97207557D01*
X148010272Y-97379459D01*
X148010276Y-97379464D01*
X148160535Y-97529723D01*
X148160540Y-97529727D01*
X148332442Y-97654620D01*
X148521782Y-97751095D01*
X148723871Y-97816757D01*
X148790000Y-97827231D01*
X148790000Y-96875277D01*
X148866306Y-96919333D01*
X148980756Y-96950000D01*
X149099244Y-96950000D01*
X149213694Y-96919333D01*
X149290000Y-96875277D01*
X149290000Y-97827230D01*
X149356126Y-97816757D01*
X149356129Y-97816757D01*
X149558217Y-97751095D01*
X149747557Y-97654620D01*
X149919459Y-97529727D01*
X149919464Y-97529723D01*
X150069723Y-97379464D01*
X150069727Y-97379459D01*
X150194620Y-97207557D01*
X150291095Y-97018217D01*
X150356757Y-96816129D01*
X150356757Y-96816126D01*
X150367231Y-96750000D01*
X149415278Y-96750000D01*
X149459333Y-96673694D01*
X149490000Y-96559244D01*
X149490000Y-96440756D01*
X149459333Y-96326306D01*
X149415278Y-96250000D01*
X150367231Y-96250000D01*
X150356757Y-96183873D01*
X150356757Y-96183870D01*
X150291095Y-95981782D01*
X150194620Y-95792442D01*
X150069727Y-95620540D01*
X150069723Y-95620535D01*
X149919464Y-95470276D01*
X149919459Y-95470272D01*
X149747557Y-95345379D01*
X149558215Y-95248903D01*
X149356124Y-95183241D01*
X149290000Y-95172768D01*
X149290000Y-96124722D01*
X149213694Y-96080667D01*
X149099244Y-96050000D01*
X148980756Y-96050000D01*
X148866306Y-96080667D01*
X148790000Y-96124722D01*
X148790000Y-95172768D01*
X148789999Y-95172768D01*
X148723875Y-95183241D01*
X148521784Y-95248903D01*
X148332442Y-95345379D01*
X148160540Y-95470272D01*
X148160535Y-95470276D01*
X148010276Y-95620535D01*
X148010272Y-95620540D01*
X147885379Y-95792442D01*
X147788905Y-95981781D01*
X147779506Y-96010708D01*
X147740068Y-96068383D01*
X147675709Y-96095581D01*
X147606862Y-96083666D01*
X147555387Y-96036421D01*
X147551090Y-96028684D01*
X147527191Y-95981780D01*
X147483996Y-95897006D01*
X147470396Y-95878287D01*
X147377558Y-95750505D01*
X147377554Y-95750500D01*
X147249499Y-95622445D01*
X147249494Y-95622441D01*
X147102997Y-95516006D01*
X147102996Y-95516005D01*
X147102994Y-95516004D01*
X147026906Y-95477235D01*
X146941639Y-95433788D01*
X146941636Y-95433787D01*
X146769410Y-95377829D01*
X146590551Y-95349500D01*
X146590546Y-95349500D01*
X146409454Y-95349500D01*
X146409449Y-95349500D01*
X146230589Y-95377829D01*
X146058363Y-95433787D01*
X146058360Y-95433788D01*
X145897002Y-95516006D01*
X145750505Y-95622441D01*
X145750500Y-95622445D01*
X145622445Y-95750500D01*
X145622441Y-95750505D01*
X145516006Y-95897002D01*
X145433788Y-96058360D01*
X145433787Y-96058363D01*
X145377829Y-96230589D01*
X145352473Y-96390678D01*
X145322544Y-96453813D01*
X145263232Y-96490744D01*
X145193369Y-96489746D01*
X145135137Y-96451136D01*
X145107527Y-96390678D01*
X145085245Y-96250000D01*
X145082171Y-96230591D01*
X145038530Y-96096275D01*
X145026212Y-96058363D01*
X145026211Y-96058360D01*
X144987191Y-95981780D01*
X144943996Y-95897006D01*
X144930396Y-95878287D01*
X144837558Y-95750505D01*
X144837554Y-95750500D01*
X144709499Y-95622445D01*
X144709494Y-95622441D01*
X144562997Y-95516006D01*
X144562996Y-95516005D01*
X144562994Y-95516004D01*
X144486906Y-95477235D01*
X144401639Y-95433788D01*
X144401636Y-95433787D01*
X144229410Y-95377829D01*
X144050551Y-95349500D01*
X144050546Y-95349500D01*
X143869454Y-95349500D01*
X143869449Y-95349500D01*
X143690589Y-95377829D01*
X143518363Y-95433787D01*
X143518360Y-95433788D01*
X143357002Y-95516006D01*
X143210505Y-95622441D01*
X143210500Y-95622445D01*
X143082445Y-95750500D01*
X143082441Y-95750505D01*
X142976006Y-95897002D01*
X142893788Y-96058360D01*
X142893787Y-96058363D01*
X142837829Y-96230589D01*
X142812473Y-96390678D01*
X142782544Y-96453813D01*
X142723232Y-96490744D01*
X142653369Y-96489746D01*
X142595137Y-96451136D01*
X142567527Y-96390678D01*
X142545245Y-96250000D01*
X142542171Y-96230591D01*
X142498530Y-96096275D01*
X142486212Y-96058363D01*
X142486211Y-96058360D01*
X142447191Y-95981780D01*
X142403996Y-95897006D01*
X142390396Y-95878287D01*
X142297558Y-95750505D01*
X142297554Y-95750500D01*
X142169499Y-95622445D01*
X142169494Y-95622441D01*
X142022997Y-95516006D01*
X142022996Y-95516005D01*
X142022994Y-95516004D01*
X141946906Y-95477235D01*
X141861639Y-95433788D01*
X141861636Y-95433787D01*
X141689410Y-95377829D01*
X141510551Y-95349500D01*
X141510546Y-95349500D01*
X141329454Y-95349500D01*
X141329449Y-95349500D01*
X141150589Y-95377829D01*
X140978363Y-95433787D01*
X140978360Y-95433788D01*
X140817002Y-95516006D01*
X140670505Y-95622441D01*
X140670500Y-95622445D01*
X140542445Y-95750500D01*
X140542441Y-95750505D01*
X140436006Y-95897002D01*
X140353788Y-96058360D01*
X140353787Y-96058363D01*
X140297829Y-96230589D01*
X140272473Y-96390678D01*
X140242544Y-96453813D01*
X140183232Y-96490744D01*
X140113369Y-96489746D01*
X140055137Y-96451136D01*
X140027527Y-96390678D01*
X140005245Y-96250000D01*
X140002171Y-96230591D01*
X139958530Y-96096275D01*
X139946212Y-96058363D01*
X139946211Y-96058360D01*
X139907191Y-95981780D01*
X139863996Y-95897006D01*
X139850396Y-95878287D01*
X139757558Y-95750505D01*
X139757554Y-95750500D01*
X139629499Y-95622445D01*
X139629494Y-95622441D01*
X139482997Y-95516006D01*
X139482996Y-95516005D01*
X139482994Y-95516004D01*
X139406906Y-95477235D01*
X139321639Y-95433788D01*
X139321636Y-95433787D01*
X139149410Y-95377829D01*
X138970551Y-95349500D01*
X138970546Y-95349500D01*
X138789454Y-95349500D01*
X138789449Y-95349500D01*
X138610589Y-95377829D01*
X138438363Y-95433787D01*
X138438360Y-95433788D01*
X138277002Y-95516006D01*
X138130505Y-95622441D01*
X138130500Y-95622445D01*
X138002445Y-95750500D01*
X138002441Y-95750505D01*
X137896006Y-95897002D01*
X137813788Y-96058360D01*
X137813787Y-96058363D01*
X137757829Y-96230589D01*
X137732473Y-96390678D01*
X137702544Y-96453813D01*
X137643232Y-96490744D01*
X137573369Y-96489746D01*
X137515137Y-96451136D01*
X137487527Y-96390678D01*
X137465245Y-96250000D01*
X137462171Y-96230591D01*
X137418530Y-96096275D01*
X137406212Y-96058363D01*
X137406211Y-96058360D01*
X137367191Y-95981780D01*
X137323996Y-95897006D01*
X137310396Y-95878287D01*
X137217558Y-95750505D01*
X137217554Y-95750500D01*
X137089499Y-95622445D01*
X137089494Y-95622441D01*
X136942997Y-95516006D01*
X136942996Y-95516005D01*
X136942994Y-95516004D01*
X136866906Y-95477235D01*
X136781639Y-95433788D01*
X136781636Y-95433787D01*
X136609410Y-95377829D01*
X136430551Y-95349500D01*
X136430546Y-95349500D01*
X136249454Y-95349500D01*
X136249449Y-95349500D01*
X136070589Y-95377829D01*
X135898363Y-95433787D01*
X135898360Y-95433788D01*
X135737002Y-95516006D01*
X135590505Y-95622441D01*
X135590500Y-95622445D01*
X135462445Y-95750500D01*
X135462441Y-95750505D01*
X135356006Y-95897002D01*
X135273788Y-96058360D01*
X135273787Y-96058363D01*
X135217829Y-96230589D01*
X135192473Y-96390678D01*
X135162544Y-96453813D01*
X135103232Y-96490744D01*
X135033369Y-96489746D01*
X134975137Y-96451136D01*
X134947527Y-96390678D01*
X134925245Y-96250000D01*
X134922171Y-96230591D01*
X134878530Y-96096275D01*
X134866212Y-96058363D01*
X134866211Y-96058360D01*
X134827191Y-95981780D01*
X134783996Y-95897006D01*
X134770396Y-95878287D01*
X134677558Y-95750505D01*
X134677554Y-95750500D01*
X134549499Y-95622445D01*
X134549494Y-95622441D01*
X134402997Y-95516006D01*
X134402996Y-95516005D01*
X134402994Y-95516004D01*
X134326906Y-95477235D01*
X134241639Y-95433788D01*
X134241636Y-95433787D01*
X134069410Y-95377829D01*
X133890551Y-95349500D01*
X133890546Y-95349500D01*
X133709454Y-95349500D01*
X133709449Y-95349500D01*
X133530589Y-95377829D01*
X133358363Y-95433787D01*
X133358360Y-95433788D01*
X133197002Y-95516006D01*
X133050505Y-95622441D01*
X133050500Y-95622445D01*
X132922445Y-95750500D01*
X132922441Y-95750505D01*
X132816006Y-95897002D01*
X132733788Y-96058360D01*
X132733787Y-96058363D01*
X132677829Y-96230589D01*
X132656972Y-96362271D01*
X132627042Y-96425405D01*
X132567731Y-96462336D01*
X132497868Y-96461338D01*
X132439636Y-96422728D01*
X132411522Y-96358764D01*
X132410499Y-96342872D01*
X132410499Y-95605143D01*
X132410499Y-95605136D01*
X132410497Y-95605117D01*
X132407586Y-95580012D01*
X132407585Y-95580010D01*
X132407585Y-95580009D01*
X132362206Y-95477235D01*
X132282765Y-95397794D01*
X132282763Y-95397793D01*
X132179992Y-95352415D01*
X132154865Y-95349500D01*
X130365143Y-95349500D01*
X130365117Y-95349502D01*
X130340012Y-95352413D01*
X130340008Y-95352415D01*
X130237235Y-95397793D01*
X130157794Y-95477234D01*
X130112415Y-95580006D01*
X130112415Y-95580008D01*
X130109500Y-95605131D01*
X130109500Y-97088731D01*
X130089815Y-97155770D01*
X130037011Y-97201525D01*
X129967853Y-97211469D01*
X129953407Y-97208506D01*
X129911284Y-97197219D01*
X129882475Y-97189500D01*
X129882474Y-97189500D01*
X129134987Y-97189500D01*
X129067948Y-97169815D01*
X129022193Y-97117011D01*
X129010987Y-97065447D01*
X129010987Y-97065420D01*
X129020464Y-74999213D01*
X134877748Y-74999213D01*
X134902515Y-75267138D01*
X134902517Y-75267149D01*
X134962265Y-75529495D01*
X134962265Y-75529496D01*
X135055964Y-75781729D01*
X135118973Y-75900593D01*
X135181983Y-76019460D01*
X135338143Y-76238579D01*
X135338145Y-76238581D01*
X135338153Y-76238590D01*
X135379851Y-76283305D01*
X135379852Y-76283305D01*
X135389761Y-76293931D01*
X135393348Y-76300235D01*
X135434685Y-76342100D01*
X135474856Y-76385141D01*
X135474860Y-76385145D01*
X135481129Y-76390308D01*
X135480652Y-76390886D01*
X135491147Y-76399284D01*
X145057874Y-86088233D01*
X145061962Y-86092578D01*
X145141598Y-86181397D01*
X145141608Y-86181408D01*
X145316413Y-86331214D01*
X145345915Y-86356497D01*
X145571454Y-86503230D01*
X145814317Y-86619062D01*
X145814318Y-86619063D01*
X146070284Y-86701984D01*
X146070291Y-86701986D01*
X146204637Y-86726645D01*
X146334938Y-86750563D01*
X146469306Y-86757258D01*
X146603663Y-86763953D01*
X146603665Y-86763952D01*
X146603675Y-86763953D01*
X146871841Y-86741923D01*
X147134790Y-86684855D01*
X147387963Y-86593738D01*
X147626971Y-86470151D01*
X147847673Y-86316237D01*
X148046242Y-86134664D01*
X148097630Y-86073447D01*
X148152864Y-86007647D01*
X148219237Y-85928578D01*
X148363660Y-85701552D01*
X148387553Y-85650112D01*
X148466019Y-85481174D01*
X148477006Y-85457520D01*
X148557312Y-85200714D01*
X148603185Y-84935583D01*
X148613831Y-84666723D01*
X148594525Y-84457873D01*
X171406516Y-84457873D01*
X171406517Y-84457879D01*
X171406517Y-84457885D01*
X171427038Y-84707683D01*
X171428547Y-84726050D01*
X171485615Y-84989001D01*
X171576733Y-85242176D01*
X171691097Y-85463347D01*
X171700319Y-85481181D01*
X171854233Y-85701883D01*
X171854235Y-85701885D01*
X171854237Y-85701888D01*
X172035795Y-85900441D01*
X172035813Y-85900459D01*
X172241883Y-86073440D01*
X172241887Y-86073443D01*
X172241892Y-86073447D01*
X172468918Y-86217870D01*
X172468921Y-86217871D01*
X172468925Y-86217874D01*
X172623840Y-86289827D01*
X172712950Y-86331216D01*
X172969756Y-86411522D01*
X173234887Y-86457395D01*
X173466982Y-86466585D01*
X173503743Y-86468041D01*
X173503744Y-86468040D01*
X173503747Y-86468041D01*
X173771675Y-86443274D01*
X174034027Y-86383524D01*
X174286256Y-86289827D01*
X174523990Y-86163807D01*
X174743109Y-86007647D01*
X174793967Y-85960219D01*
X174800231Y-85956656D01*
X174841790Y-85915621D01*
X174889671Y-85870934D01*
X174889674Y-85870928D01*
X174894841Y-85864656D01*
X174895349Y-85865075D01*
X174904236Y-85853964D01*
X184592781Y-76287897D01*
X184597103Y-76283831D01*
X184685929Y-76204190D01*
X184685936Y-76204184D01*
X184861027Y-75999875D01*
X185007760Y-75774336D01*
X185123592Y-75531474D01*
X185206515Y-75275501D01*
X185255093Y-75010852D01*
X185263850Y-74835108D01*
X185268483Y-74742126D01*
X185268482Y-74742123D01*
X185268483Y-74742115D01*
X185246453Y-74473949D01*
X185189385Y-74211000D01*
X185098268Y-73957827D01*
X184974681Y-73718819D01*
X184820767Y-73498117D01*
X184808344Y-73484531D01*
X184639204Y-73299558D01*
X184639186Y-73299540D01*
X184433116Y-73126559D01*
X184433105Y-73126551D01*
X184307863Y-73046878D01*
X184206082Y-72982130D01*
X184206080Y-72982129D01*
X184206074Y-72982125D01*
X183962053Y-72868785D01*
X183962044Y-72868782D01*
X183705252Y-72788480D01*
X183705247Y-72788479D01*
X183705244Y-72788478D01*
X183440113Y-72742605D01*
X183430921Y-72742241D01*
X183171256Y-72731958D01*
X182903331Y-72756725D01*
X182903326Y-72756725D01*
X182903325Y-72756726D01*
X182903323Y-72756726D01*
X182903320Y-72756727D01*
X182640974Y-72816475D01*
X182640973Y-72816475D01*
X182388740Y-72910174D01*
X182151008Y-73036194D01*
X181931904Y-73192342D01*
X181931887Y-73192356D01*
X181887157Y-73234068D01*
X181880820Y-73239977D01*
X181876538Y-73243971D01*
X181870235Y-73247558D01*
X181828385Y-73288879D01*
X181827106Y-73290072D01*
X181785327Y-73329066D01*
X181780163Y-73335337D01*
X181779588Y-73334863D01*
X181771190Y-73345352D01*
X172082245Y-82912075D01*
X172077901Y-82916162D01*
X171989072Y-82995807D01*
X171989061Y-82995818D01*
X171813976Y-83200120D01*
X171667240Y-83425664D01*
X171667238Y-83425666D01*
X171551408Y-83668525D01*
X171551406Y-83668528D01*
X171468485Y-83924494D01*
X171468483Y-83924501D01*
X171419909Y-84189135D01*
X171419906Y-84189160D01*
X171406516Y-84457873D01*
X148594525Y-84457873D01*
X148589064Y-84398795D01*
X148529314Y-84136443D01*
X148435617Y-83884214D01*
X148309597Y-83646480D01*
X148153437Y-83427361D01*
X148115921Y-83387131D01*
X148106009Y-83376502D01*
X148102447Y-83370240D01*
X148061411Y-83328679D01*
X148016724Y-83280799D01*
X148016718Y-83280795D01*
X148010448Y-83275630D01*
X148010864Y-83275124D01*
X147999754Y-83266232D01*
X141209389Y-76388927D01*
X138433683Y-73577682D01*
X138429626Y-73573372D01*
X138349974Y-73484534D01*
X138349973Y-73484533D01*
X138349971Y-73484531D01*
X138145669Y-73309446D01*
X138145666Y-73309444D01*
X138145665Y-73309443D01*
X137920126Y-73162710D01*
X137920124Y-73162709D01*
X137920123Y-73162708D01*
X137677264Y-73046878D01*
X137677261Y-73046876D01*
X137421295Y-72963955D01*
X137421288Y-72963953D01*
X137156654Y-72915379D01*
X137156650Y-72915378D01*
X137156642Y-72915377D01*
X137156634Y-72915376D01*
X137156629Y-72915376D01*
X136887916Y-72901986D01*
X136887910Y-72901987D01*
X136887908Y-72901987D01*
X136887905Y-72901987D01*
X136619739Y-72924017D01*
X136356788Y-72981085D01*
X136103613Y-73072203D01*
X135864615Y-73195785D01*
X135643901Y-73349707D01*
X135445348Y-73531265D01*
X135445330Y-73531283D01*
X135272349Y-73737353D01*
X135272341Y-73737364D01*
X135127919Y-73964389D01*
X135127915Y-73964395D01*
X135014575Y-74208416D01*
X135014572Y-74208425D01*
X134934270Y-74465217D01*
X134934269Y-74465222D01*
X134888395Y-74730357D01*
X134877748Y-74999213D01*
X129020464Y-74999213D01*
X129020473Y-74978615D01*
X129020877Y-74968698D01*
X129049092Y-74620395D01*
X129050738Y-74607958D01*
X129114339Y-74262884D01*
X129117237Y-74250670D01*
X129215453Y-73913817D01*
X129219568Y-73901973D01*
X129351396Y-73576780D01*
X129356699Y-73565396D01*
X129374749Y-73531276D01*
X129478509Y-73335131D01*
X129520760Y-73255261D01*
X129527194Y-73244460D01*
X129581695Y-73162710D01*
X129721831Y-72952510D01*
X129729315Y-72942433D01*
X129952503Y-72671706D01*
X129960967Y-72662438D01*
X130210444Y-72415683D01*
X130219795Y-72407329D01*
X130492973Y-72187107D01*
X130503124Y-72179740D01*
X130797191Y-71988318D01*
X130808051Y-71982009D01*
X131119978Y-71821354D01*
X131131430Y-71816173D01*
X131458038Y-71687924D01*
X131469917Y-71683943D01*
X131807840Y-71589425D01*
X131820088Y-71586660D01*
X132165829Y-71526849D01*
X132178291Y-71525340D01*
X132528804Y-71500811D01*
X132537529Y-71500509D01*
X188521338Y-71545468D01*
G37*
G04 #@! TD.AperFunction*
G04 #@! TD*
M02*
